M48
; DRILL file {KiCad 5.1.5} date Thu 20 Feb 2020 08:27:01 AM EST
; FORMAT={-:-/ absolute / inch / decimal}
; #@! TF.CreationDate,2020-02-20T08:27:01-05:00
; #@! TF.GenerationSoftware,Kicad,Pcbnew,5.1.5
FMAT,2
INCH
T1C0.0157
T2C0.0315
T3C0.0362
T4C0.0906
%
G90
G05
T1
X7.5Y-4.1
X7.5372Y-3.7372
T2
X7.45Y-3.4531
X7.45Y-3.65
X5.3Y-3.6
X5.3Y-3.7
X5.3Y-3.8
X5.3Y-3.9
X5.6Y-3.6
X5.6Y-3.7
X5.6Y-3.8
X5.6Y-3.9
X6.2031Y-4.0
X6.4Y-4.0
X5.75Y-3.5
X5.75Y-3.8
X5.85Y-3.5
X5.85Y-3.8
X5.95Y-3.5
X5.95Y-3.8
X6.05Y-3.5
X6.05Y-3.8
X6.15Y-3.5
X6.15Y-3.8
X6.25Y-3.5
X6.25Y-3.8
X6.35Y-3.5
X6.35Y-3.8
X6.45Y-3.5
X6.45Y-3.8
X6.55Y-3.5
X6.55Y-3.8
X6.65Y-3.5
X6.65Y-3.8
X6.75Y-3.5
X6.75Y-3.8
X6.85Y-3.5
X6.85Y-3.8
X6.95Y-3.5
X6.95Y-3.8
X7.05Y-3.5
X7.05Y-3.8
X5.8Y-4.0
X6.1Y-4.0
X6.6079Y-4.0
X6.8Y-4.0
X7.0Y-4.0
X7.1969Y-4.0
X7.25Y-3.45
X7.25Y-3.6469
T3
X7.65Y-3.6244
X7.65Y-3.7228
X7.65Y-3.8016
X7.65Y-3.9
T4
X7.7567Y-3.5035
X7.7567Y-4.0209
T0
M30
