G04 #@! TF.GenerationSoftware,KiCad,Pcbnew,5.1.5*
G04 #@! TF.CreationDate,2020-02-20T08:26:26-05:00*
G04 #@! TF.ProjectId,bluefish-hardware,626c7565-6669-4736-982d-686172647761,rev?*
G04 #@! TF.SameCoordinates,Original*
G04 #@! TF.FileFunction,Paste,Top*
G04 #@! TF.FilePolarity,Positive*
%FSLAX46Y46*%
G04 Gerber Fmt 4.6, Leading zero omitted, Abs format (unit mm)*
G04 Created by KiCad (PCBNEW 5.1.5) date 2020-02-20 08:26:26*
%MOMM*%
%LPD*%
G04 APERTURE LIST*
%ADD10C,0.100000*%
G04 APERTURE END LIST*
D10*
G36*
X187489703Y-100560722D02*
G01*
X187504264Y-100562882D01*
X187518543Y-100566459D01*
X187532403Y-100571418D01*
X187545710Y-100577712D01*
X187558336Y-100585280D01*
X187570159Y-100594048D01*
X187581066Y-100603934D01*
X187590952Y-100614841D01*
X187599720Y-100626664D01*
X187607288Y-100639290D01*
X187613582Y-100652597D01*
X187618541Y-100666457D01*
X187622118Y-100680736D01*
X187624278Y-100695297D01*
X187625000Y-100710000D01*
X187625000Y-102360000D01*
X187624278Y-102374703D01*
X187622118Y-102389264D01*
X187618541Y-102403543D01*
X187613582Y-102417403D01*
X187607288Y-102430710D01*
X187599720Y-102443336D01*
X187590952Y-102455159D01*
X187581066Y-102466066D01*
X187570159Y-102475952D01*
X187558336Y-102484720D01*
X187545710Y-102492288D01*
X187532403Y-102498582D01*
X187518543Y-102503541D01*
X187504264Y-102507118D01*
X187489703Y-102509278D01*
X187475000Y-102510000D01*
X187175000Y-102510000D01*
X187160297Y-102509278D01*
X187145736Y-102507118D01*
X187131457Y-102503541D01*
X187117597Y-102498582D01*
X187104290Y-102492288D01*
X187091664Y-102484720D01*
X187079841Y-102475952D01*
X187068934Y-102466066D01*
X187059048Y-102455159D01*
X187050280Y-102443336D01*
X187042712Y-102430710D01*
X187036418Y-102417403D01*
X187031459Y-102403543D01*
X187027882Y-102389264D01*
X187025722Y-102374703D01*
X187025000Y-102360000D01*
X187025000Y-100710000D01*
X187025722Y-100695297D01*
X187027882Y-100680736D01*
X187031459Y-100666457D01*
X187036418Y-100652597D01*
X187042712Y-100639290D01*
X187050280Y-100626664D01*
X187059048Y-100614841D01*
X187068934Y-100603934D01*
X187079841Y-100594048D01*
X187091664Y-100585280D01*
X187104290Y-100577712D01*
X187117597Y-100571418D01*
X187131457Y-100566459D01*
X187145736Y-100562882D01*
X187160297Y-100560722D01*
X187175000Y-100560000D01*
X187475000Y-100560000D01*
X187489703Y-100560722D01*
G37*
G36*
X188759703Y-100560722D02*
G01*
X188774264Y-100562882D01*
X188788543Y-100566459D01*
X188802403Y-100571418D01*
X188815710Y-100577712D01*
X188828336Y-100585280D01*
X188840159Y-100594048D01*
X188851066Y-100603934D01*
X188860952Y-100614841D01*
X188869720Y-100626664D01*
X188877288Y-100639290D01*
X188883582Y-100652597D01*
X188888541Y-100666457D01*
X188892118Y-100680736D01*
X188894278Y-100695297D01*
X188895000Y-100710000D01*
X188895000Y-102360000D01*
X188894278Y-102374703D01*
X188892118Y-102389264D01*
X188888541Y-102403543D01*
X188883582Y-102417403D01*
X188877288Y-102430710D01*
X188869720Y-102443336D01*
X188860952Y-102455159D01*
X188851066Y-102466066D01*
X188840159Y-102475952D01*
X188828336Y-102484720D01*
X188815710Y-102492288D01*
X188802403Y-102498582D01*
X188788543Y-102503541D01*
X188774264Y-102507118D01*
X188759703Y-102509278D01*
X188745000Y-102510000D01*
X188445000Y-102510000D01*
X188430297Y-102509278D01*
X188415736Y-102507118D01*
X188401457Y-102503541D01*
X188387597Y-102498582D01*
X188374290Y-102492288D01*
X188361664Y-102484720D01*
X188349841Y-102475952D01*
X188338934Y-102466066D01*
X188329048Y-102455159D01*
X188320280Y-102443336D01*
X188312712Y-102430710D01*
X188306418Y-102417403D01*
X188301459Y-102403543D01*
X188297882Y-102389264D01*
X188295722Y-102374703D01*
X188295000Y-102360000D01*
X188295000Y-100710000D01*
X188295722Y-100695297D01*
X188297882Y-100680736D01*
X188301459Y-100666457D01*
X188306418Y-100652597D01*
X188312712Y-100639290D01*
X188320280Y-100626664D01*
X188329048Y-100614841D01*
X188338934Y-100603934D01*
X188349841Y-100594048D01*
X188361664Y-100585280D01*
X188374290Y-100577712D01*
X188387597Y-100571418D01*
X188401457Y-100566459D01*
X188415736Y-100562882D01*
X188430297Y-100560722D01*
X188445000Y-100560000D01*
X188745000Y-100560000D01*
X188759703Y-100560722D01*
G37*
G36*
X190029703Y-100560722D02*
G01*
X190044264Y-100562882D01*
X190058543Y-100566459D01*
X190072403Y-100571418D01*
X190085710Y-100577712D01*
X190098336Y-100585280D01*
X190110159Y-100594048D01*
X190121066Y-100603934D01*
X190130952Y-100614841D01*
X190139720Y-100626664D01*
X190147288Y-100639290D01*
X190153582Y-100652597D01*
X190158541Y-100666457D01*
X190162118Y-100680736D01*
X190164278Y-100695297D01*
X190165000Y-100710000D01*
X190165000Y-102360000D01*
X190164278Y-102374703D01*
X190162118Y-102389264D01*
X190158541Y-102403543D01*
X190153582Y-102417403D01*
X190147288Y-102430710D01*
X190139720Y-102443336D01*
X190130952Y-102455159D01*
X190121066Y-102466066D01*
X190110159Y-102475952D01*
X190098336Y-102484720D01*
X190085710Y-102492288D01*
X190072403Y-102498582D01*
X190058543Y-102503541D01*
X190044264Y-102507118D01*
X190029703Y-102509278D01*
X190015000Y-102510000D01*
X189715000Y-102510000D01*
X189700297Y-102509278D01*
X189685736Y-102507118D01*
X189671457Y-102503541D01*
X189657597Y-102498582D01*
X189644290Y-102492288D01*
X189631664Y-102484720D01*
X189619841Y-102475952D01*
X189608934Y-102466066D01*
X189599048Y-102455159D01*
X189590280Y-102443336D01*
X189582712Y-102430710D01*
X189576418Y-102417403D01*
X189571459Y-102403543D01*
X189567882Y-102389264D01*
X189565722Y-102374703D01*
X189565000Y-102360000D01*
X189565000Y-100710000D01*
X189565722Y-100695297D01*
X189567882Y-100680736D01*
X189571459Y-100666457D01*
X189576418Y-100652597D01*
X189582712Y-100639290D01*
X189590280Y-100626664D01*
X189599048Y-100614841D01*
X189608934Y-100603934D01*
X189619841Y-100594048D01*
X189631664Y-100585280D01*
X189644290Y-100577712D01*
X189657597Y-100571418D01*
X189671457Y-100566459D01*
X189685736Y-100562882D01*
X189700297Y-100560722D01*
X189715000Y-100560000D01*
X190015000Y-100560000D01*
X190029703Y-100560722D01*
G37*
G36*
X191299703Y-100560722D02*
G01*
X191314264Y-100562882D01*
X191328543Y-100566459D01*
X191342403Y-100571418D01*
X191355710Y-100577712D01*
X191368336Y-100585280D01*
X191380159Y-100594048D01*
X191391066Y-100603934D01*
X191400952Y-100614841D01*
X191409720Y-100626664D01*
X191417288Y-100639290D01*
X191423582Y-100652597D01*
X191428541Y-100666457D01*
X191432118Y-100680736D01*
X191434278Y-100695297D01*
X191435000Y-100710000D01*
X191435000Y-102360000D01*
X191434278Y-102374703D01*
X191432118Y-102389264D01*
X191428541Y-102403543D01*
X191423582Y-102417403D01*
X191417288Y-102430710D01*
X191409720Y-102443336D01*
X191400952Y-102455159D01*
X191391066Y-102466066D01*
X191380159Y-102475952D01*
X191368336Y-102484720D01*
X191355710Y-102492288D01*
X191342403Y-102498582D01*
X191328543Y-102503541D01*
X191314264Y-102507118D01*
X191299703Y-102509278D01*
X191285000Y-102510000D01*
X190985000Y-102510000D01*
X190970297Y-102509278D01*
X190955736Y-102507118D01*
X190941457Y-102503541D01*
X190927597Y-102498582D01*
X190914290Y-102492288D01*
X190901664Y-102484720D01*
X190889841Y-102475952D01*
X190878934Y-102466066D01*
X190869048Y-102455159D01*
X190860280Y-102443336D01*
X190852712Y-102430710D01*
X190846418Y-102417403D01*
X190841459Y-102403543D01*
X190837882Y-102389264D01*
X190835722Y-102374703D01*
X190835000Y-102360000D01*
X190835000Y-100710000D01*
X190835722Y-100695297D01*
X190837882Y-100680736D01*
X190841459Y-100666457D01*
X190846418Y-100652597D01*
X190852712Y-100639290D01*
X190860280Y-100626664D01*
X190869048Y-100614841D01*
X190878934Y-100603934D01*
X190889841Y-100594048D01*
X190901664Y-100585280D01*
X190914290Y-100577712D01*
X190927597Y-100571418D01*
X190941457Y-100566459D01*
X190955736Y-100562882D01*
X190970297Y-100560722D01*
X190985000Y-100560000D01*
X191285000Y-100560000D01*
X191299703Y-100560722D01*
G37*
G36*
X191299703Y-95610722D02*
G01*
X191314264Y-95612882D01*
X191328543Y-95616459D01*
X191342403Y-95621418D01*
X191355710Y-95627712D01*
X191368336Y-95635280D01*
X191380159Y-95644048D01*
X191391066Y-95653934D01*
X191400952Y-95664841D01*
X191409720Y-95676664D01*
X191417288Y-95689290D01*
X191423582Y-95702597D01*
X191428541Y-95716457D01*
X191432118Y-95730736D01*
X191434278Y-95745297D01*
X191435000Y-95760000D01*
X191435000Y-97410000D01*
X191434278Y-97424703D01*
X191432118Y-97439264D01*
X191428541Y-97453543D01*
X191423582Y-97467403D01*
X191417288Y-97480710D01*
X191409720Y-97493336D01*
X191400952Y-97505159D01*
X191391066Y-97516066D01*
X191380159Y-97525952D01*
X191368336Y-97534720D01*
X191355710Y-97542288D01*
X191342403Y-97548582D01*
X191328543Y-97553541D01*
X191314264Y-97557118D01*
X191299703Y-97559278D01*
X191285000Y-97560000D01*
X190985000Y-97560000D01*
X190970297Y-97559278D01*
X190955736Y-97557118D01*
X190941457Y-97553541D01*
X190927597Y-97548582D01*
X190914290Y-97542288D01*
X190901664Y-97534720D01*
X190889841Y-97525952D01*
X190878934Y-97516066D01*
X190869048Y-97505159D01*
X190860280Y-97493336D01*
X190852712Y-97480710D01*
X190846418Y-97467403D01*
X190841459Y-97453543D01*
X190837882Y-97439264D01*
X190835722Y-97424703D01*
X190835000Y-97410000D01*
X190835000Y-95760000D01*
X190835722Y-95745297D01*
X190837882Y-95730736D01*
X190841459Y-95716457D01*
X190846418Y-95702597D01*
X190852712Y-95689290D01*
X190860280Y-95676664D01*
X190869048Y-95664841D01*
X190878934Y-95653934D01*
X190889841Y-95644048D01*
X190901664Y-95635280D01*
X190914290Y-95627712D01*
X190927597Y-95621418D01*
X190941457Y-95616459D01*
X190955736Y-95612882D01*
X190970297Y-95610722D01*
X190985000Y-95610000D01*
X191285000Y-95610000D01*
X191299703Y-95610722D01*
G37*
G36*
X190029703Y-95610722D02*
G01*
X190044264Y-95612882D01*
X190058543Y-95616459D01*
X190072403Y-95621418D01*
X190085710Y-95627712D01*
X190098336Y-95635280D01*
X190110159Y-95644048D01*
X190121066Y-95653934D01*
X190130952Y-95664841D01*
X190139720Y-95676664D01*
X190147288Y-95689290D01*
X190153582Y-95702597D01*
X190158541Y-95716457D01*
X190162118Y-95730736D01*
X190164278Y-95745297D01*
X190165000Y-95760000D01*
X190165000Y-97410000D01*
X190164278Y-97424703D01*
X190162118Y-97439264D01*
X190158541Y-97453543D01*
X190153582Y-97467403D01*
X190147288Y-97480710D01*
X190139720Y-97493336D01*
X190130952Y-97505159D01*
X190121066Y-97516066D01*
X190110159Y-97525952D01*
X190098336Y-97534720D01*
X190085710Y-97542288D01*
X190072403Y-97548582D01*
X190058543Y-97553541D01*
X190044264Y-97557118D01*
X190029703Y-97559278D01*
X190015000Y-97560000D01*
X189715000Y-97560000D01*
X189700297Y-97559278D01*
X189685736Y-97557118D01*
X189671457Y-97553541D01*
X189657597Y-97548582D01*
X189644290Y-97542288D01*
X189631664Y-97534720D01*
X189619841Y-97525952D01*
X189608934Y-97516066D01*
X189599048Y-97505159D01*
X189590280Y-97493336D01*
X189582712Y-97480710D01*
X189576418Y-97467403D01*
X189571459Y-97453543D01*
X189567882Y-97439264D01*
X189565722Y-97424703D01*
X189565000Y-97410000D01*
X189565000Y-95760000D01*
X189565722Y-95745297D01*
X189567882Y-95730736D01*
X189571459Y-95716457D01*
X189576418Y-95702597D01*
X189582712Y-95689290D01*
X189590280Y-95676664D01*
X189599048Y-95664841D01*
X189608934Y-95653934D01*
X189619841Y-95644048D01*
X189631664Y-95635280D01*
X189644290Y-95627712D01*
X189657597Y-95621418D01*
X189671457Y-95616459D01*
X189685736Y-95612882D01*
X189700297Y-95610722D01*
X189715000Y-95610000D01*
X190015000Y-95610000D01*
X190029703Y-95610722D01*
G37*
G36*
X188759703Y-95610722D02*
G01*
X188774264Y-95612882D01*
X188788543Y-95616459D01*
X188802403Y-95621418D01*
X188815710Y-95627712D01*
X188828336Y-95635280D01*
X188840159Y-95644048D01*
X188851066Y-95653934D01*
X188860952Y-95664841D01*
X188869720Y-95676664D01*
X188877288Y-95689290D01*
X188883582Y-95702597D01*
X188888541Y-95716457D01*
X188892118Y-95730736D01*
X188894278Y-95745297D01*
X188895000Y-95760000D01*
X188895000Y-97410000D01*
X188894278Y-97424703D01*
X188892118Y-97439264D01*
X188888541Y-97453543D01*
X188883582Y-97467403D01*
X188877288Y-97480710D01*
X188869720Y-97493336D01*
X188860952Y-97505159D01*
X188851066Y-97516066D01*
X188840159Y-97525952D01*
X188828336Y-97534720D01*
X188815710Y-97542288D01*
X188802403Y-97548582D01*
X188788543Y-97553541D01*
X188774264Y-97557118D01*
X188759703Y-97559278D01*
X188745000Y-97560000D01*
X188445000Y-97560000D01*
X188430297Y-97559278D01*
X188415736Y-97557118D01*
X188401457Y-97553541D01*
X188387597Y-97548582D01*
X188374290Y-97542288D01*
X188361664Y-97534720D01*
X188349841Y-97525952D01*
X188338934Y-97516066D01*
X188329048Y-97505159D01*
X188320280Y-97493336D01*
X188312712Y-97480710D01*
X188306418Y-97467403D01*
X188301459Y-97453543D01*
X188297882Y-97439264D01*
X188295722Y-97424703D01*
X188295000Y-97410000D01*
X188295000Y-95760000D01*
X188295722Y-95745297D01*
X188297882Y-95730736D01*
X188301459Y-95716457D01*
X188306418Y-95702597D01*
X188312712Y-95689290D01*
X188320280Y-95676664D01*
X188329048Y-95664841D01*
X188338934Y-95653934D01*
X188349841Y-95644048D01*
X188361664Y-95635280D01*
X188374290Y-95627712D01*
X188387597Y-95621418D01*
X188401457Y-95616459D01*
X188415736Y-95612882D01*
X188430297Y-95610722D01*
X188445000Y-95610000D01*
X188745000Y-95610000D01*
X188759703Y-95610722D01*
G37*
G36*
X187489703Y-95610722D02*
G01*
X187504264Y-95612882D01*
X187518543Y-95616459D01*
X187532403Y-95621418D01*
X187545710Y-95627712D01*
X187558336Y-95635280D01*
X187570159Y-95644048D01*
X187581066Y-95653934D01*
X187590952Y-95664841D01*
X187599720Y-95676664D01*
X187607288Y-95689290D01*
X187613582Y-95702597D01*
X187618541Y-95716457D01*
X187622118Y-95730736D01*
X187624278Y-95745297D01*
X187625000Y-95760000D01*
X187625000Y-97410000D01*
X187624278Y-97424703D01*
X187622118Y-97439264D01*
X187618541Y-97453543D01*
X187613582Y-97467403D01*
X187607288Y-97480710D01*
X187599720Y-97493336D01*
X187590952Y-97505159D01*
X187581066Y-97516066D01*
X187570159Y-97525952D01*
X187558336Y-97534720D01*
X187545710Y-97542288D01*
X187532403Y-97548582D01*
X187518543Y-97553541D01*
X187504264Y-97557118D01*
X187489703Y-97559278D01*
X187475000Y-97560000D01*
X187175000Y-97560000D01*
X187160297Y-97559278D01*
X187145736Y-97557118D01*
X187131457Y-97553541D01*
X187117597Y-97548582D01*
X187104290Y-97542288D01*
X187091664Y-97534720D01*
X187079841Y-97525952D01*
X187068934Y-97516066D01*
X187059048Y-97505159D01*
X187050280Y-97493336D01*
X187042712Y-97480710D01*
X187036418Y-97467403D01*
X187031459Y-97453543D01*
X187027882Y-97439264D01*
X187025722Y-97424703D01*
X187025000Y-97410000D01*
X187025000Y-95760000D01*
X187025722Y-95745297D01*
X187027882Y-95730736D01*
X187031459Y-95716457D01*
X187036418Y-95702597D01*
X187042712Y-95689290D01*
X187050280Y-95676664D01*
X187059048Y-95664841D01*
X187068934Y-95653934D01*
X187079841Y-95644048D01*
X187091664Y-95635280D01*
X187104290Y-95627712D01*
X187117597Y-95621418D01*
X187131457Y-95616459D01*
X187145736Y-95612882D01*
X187160297Y-95610722D01*
X187175000Y-95610000D01*
X187475000Y-95610000D01*
X187489703Y-95610722D01*
G37*
M02*
