%FSLAX45Y45*%
G04 Gerber Fmt 4.5, Leading zero omitted, Abs format (unit mm)*
G04 Created by KiCad (PCBNEW 5.1.5) date 2020-02-20 08:26:59*
%MOMM*%
%LPD*%
G04 APERTURE LIST*
%TA.AperFunction,Profile*%
%ADD10C,0.050000*%
%TD*%
%ADD11C,0.200000*%
%ADD12C,0.300000*%
G04 APERTURE END LIST*
D10*
X19939000Y-10668000D02*
X19939000Y-8509000D01*
X13208000Y-10668000D02*
X19939000Y-10668000D01*
X13208000Y-10541000D02*
X13208000Y-10668000D01*
X13208000Y-8509000D02*
X13208000Y-10541000D01*
X19939000Y-8509000D02*
X13208000Y-8509000D01*
D11*
X19030000Y-10394000D02*
X19070000Y-10434000D01*
X19070000Y-10394000D02*
X19030000Y-10434000D01*
X19124500Y-9472500D02*
X19164500Y-9512500D01*
X19164500Y-9472500D02*
X19124500Y-9512500D01*
X18963000Y-8771000D02*
G75*
G03X18963000Y-8771000I-40000J0D01*
G01*
X18963000Y-9271000D02*
G75*
G03X18963000Y-9271000I-40000J0D01*
G01*
X13502000Y-9144000D02*
G75*
G03X13502000Y-9144000I-40000J0D01*
G01*
X13502000Y-9398000D02*
G75*
G03X13502000Y-9398000I-40000J0D01*
G01*
X13502000Y-9652000D02*
G75*
G03X13502000Y-9652000I-40000J0D01*
G01*
X13502000Y-9906000D02*
G75*
G03X13502000Y-9906000I-40000J0D01*
G01*
X14264000Y-9144000D02*
G75*
G03X14264000Y-9144000I-40000J0D01*
G01*
X14264000Y-9398000D02*
G75*
G03X14264000Y-9398000I-40000J0D01*
G01*
X14264000Y-9652000D02*
G75*
G03X14264000Y-9652000I-40000J0D01*
G01*
X14264000Y-9906000D02*
G75*
G03X14264000Y-9906000I-40000J0D01*
G01*
X15796000Y-10160000D02*
G75*
G03X15796000Y-10160000I-40000J0D01*
G01*
X16296000Y-10160000D02*
G75*
G03X16296000Y-10160000I-40000J0D01*
G01*
X14645000Y-8890000D02*
G75*
G03X14645000Y-8890000I-40000J0D01*
G01*
X14645000Y-9652000D02*
G75*
G03X14645000Y-9652000I-40000J0D01*
G01*
X14899000Y-8890000D02*
G75*
G03X14899000Y-8890000I-40000J0D01*
G01*
X14899000Y-9652000D02*
G75*
G03X14899000Y-9652000I-40000J0D01*
G01*
X15153000Y-8890000D02*
G75*
G03X15153000Y-8890000I-40000J0D01*
G01*
X15153000Y-9652000D02*
G75*
G03X15153000Y-9652000I-40000J0D01*
G01*
X15407000Y-8890000D02*
G75*
G03X15407000Y-8890000I-40000J0D01*
G01*
X15407000Y-9652000D02*
G75*
G03X15407000Y-9652000I-40000J0D01*
G01*
X15661000Y-8890000D02*
G75*
G03X15661000Y-8890000I-40000J0D01*
G01*
X15661000Y-9652000D02*
G75*
G03X15661000Y-9652000I-40000J0D01*
G01*
X15915000Y-8890000D02*
G75*
G03X15915000Y-8890000I-40000J0D01*
G01*
X15915000Y-9652000D02*
G75*
G03X15915000Y-9652000I-40000J0D01*
G01*
X16169000Y-8890000D02*
G75*
G03X16169000Y-8890000I-40000J0D01*
G01*
X16169000Y-9652000D02*
G75*
G03X16169000Y-9652000I-40000J0D01*
G01*
X16423000Y-8890000D02*
G75*
G03X16423000Y-8890000I-40000J0D01*
G01*
X16423000Y-9652000D02*
G75*
G03X16423000Y-9652000I-40000J0D01*
G01*
X16677000Y-8890000D02*
G75*
G03X16677000Y-8890000I-40000J0D01*
G01*
X16677000Y-9652000D02*
G75*
G03X16677000Y-9652000I-40000J0D01*
G01*
X16931000Y-8890000D02*
G75*
G03X16931000Y-8890000I-40000J0D01*
G01*
X16931000Y-9652000D02*
G75*
G03X16931000Y-9652000I-40000J0D01*
G01*
X17185000Y-8890000D02*
G75*
G03X17185000Y-8890000I-40000J0D01*
G01*
X17185000Y-9652000D02*
G75*
G03X17185000Y-9652000I-40000J0D01*
G01*
X17439000Y-8890000D02*
G75*
G03X17439000Y-8890000I-40000J0D01*
G01*
X17439000Y-9652000D02*
G75*
G03X17439000Y-9652000I-40000J0D01*
G01*
X17693000Y-8890000D02*
G75*
G03X17693000Y-8890000I-40000J0D01*
G01*
X17693000Y-9652000D02*
G75*
G03X17693000Y-9652000I-40000J0D01*
G01*
X17947000Y-8890000D02*
G75*
G03X17947000Y-8890000I-40000J0D01*
G01*
X17947000Y-9652000D02*
G75*
G03X17947000Y-9652000I-40000J0D01*
G01*
X14772000Y-10160000D02*
G75*
G03X14772000Y-10160000I-40000J0D01*
G01*
X15534000Y-10160000D02*
G75*
G03X15534000Y-10160000I-40000J0D01*
G01*
X16824000Y-10160000D02*
G75*
G03X16824000Y-10160000I-40000J0D01*
G01*
X17312000Y-10160000D02*
G75*
G03X17312000Y-10160000I-40000J0D01*
G01*
X17820000Y-10160000D02*
G75*
G03X17820000Y-10160000I-40000J0D01*
G01*
X18320000Y-10160000D02*
G75*
G03X18320000Y-10160000I-40000J0D01*
G01*
X18455000Y-8763000D02*
G75*
G03X18455000Y-8763000I-40000J0D01*
G01*
X18455000Y-9263000D02*
G75*
G03X18455000Y-9263000I-40000J0D01*
G01*
X19431000Y-9160000D02*
X19431000Y-9252000D01*
X19385000Y-9206000D02*
X19477000Y-9206000D01*
X19431000Y-9410000D02*
X19431000Y-9502000D01*
X19385000Y-9456000D02*
X19477000Y-9456000D01*
X19431000Y-9610000D02*
X19431000Y-9702000D01*
X19385000Y-9656000D02*
X19477000Y-9656000D01*
X19431000Y-9860000D02*
X19431000Y-9952000D01*
X19385000Y-9906000D02*
X19477000Y-9906000D01*
X19783318Y-8980318D02*
X19783318Y-8817682D01*
X19620682Y-8817682D01*
X19620682Y-8980318D01*
X19783318Y-8980318D01*
X19783318Y-10294318D02*
X19783318Y-10131682D01*
X19620682Y-10131682D01*
X19620682Y-10294318D01*
X19783318Y-10294318D01*
D12*
X13491928Y-11136214D02*
X13491928Y-10836214D01*
X13563357Y-10836214D01*
X13606214Y-10850500D01*
X13634786Y-10879072D01*
X13649071Y-10907643D01*
X13663357Y-10964786D01*
X13663357Y-11007643D01*
X13649071Y-11064786D01*
X13634786Y-11093357D01*
X13606214Y-11121929D01*
X13563357Y-11136214D01*
X13491928Y-11136214D01*
X13791928Y-11136214D02*
X13791928Y-10936214D01*
X13791928Y-10993357D02*
X13806214Y-10964786D01*
X13820500Y-10950500D01*
X13849071Y-10936214D01*
X13877643Y-10936214D01*
X13977643Y-11136214D02*
X13977643Y-10936214D01*
X13977643Y-10836214D02*
X13963357Y-10850500D01*
X13977643Y-10864786D01*
X13991928Y-10850500D01*
X13977643Y-10836214D01*
X13977643Y-10864786D01*
X14163357Y-11136214D02*
X14134786Y-11121929D01*
X14120500Y-11093357D01*
X14120500Y-10836214D01*
X14320500Y-11136214D02*
X14291928Y-11121929D01*
X14277643Y-11093357D01*
X14277643Y-10836214D01*
X14663357Y-11136214D02*
X14663357Y-10836214D01*
X14763357Y-11050500D01*
X14863357Y-10836214D01*
X14863357Y-11136214D01*
X15134786Y-11136214D02*
X15134786Y-10979072D01*
X15120500Y-10950500D01*
X15091928Y-10936214D01*
X15034786Y-10936214D01*
X15006214Y-10950500D01*
X15134786Y-11121929D02*
X15106214Y-11136214D01*
X15034786Y-11136214D01*
X15006214Y-11121929D01*
X14991928Y-11093357D01*
X14991928Y-11064786D01*
X15006214Y-11036214D01*
X15034786Y-11021929D01*
X15106214Y-11021929D01*
X15134786Y-11007643D01*
X15277643Y-10936214D02*
X15277643Y-11236214D01*
X15277643Y-10950500D02*
X15306214Y-10936214D01*
X15363357Y-10936214D01*
X15391928Y-10950500D01*
X15406214Y-10964786D01*
X15420500Y-10993357D01*
X15420500Y-11079072D01*
X15406214Y-11107643D01*
X15391928Y-11121929D01*
X15363357Y-11136214D01*
X15306214Y-11136214D01*
X15277643Y-11121929D01*
X15549071Y-11107643D02*
X15563357Y-11121929D01*
X15549071Y-11136214D01*
X15534786Y-11121929D01*
X15549071Y-11107643D01*
X15549071Y-11136214D01*
X15549071Y-10950500D02*
X15563357Y-10964786D01*
X15549071Y-10979072D01*
X15534786Y-10964786D01*
X15549071Y-10950500D01*
X15549071Y-10979072D01*
X13165500Y-11610500D02*
X13205500Y-11650500D01*
X13205500Y-11610500D02*
X13165500Y-11650500D01*
X13549071Y-11466214D02*
X13577643Y-11466214D01*
X13606214Y-11480500D01*
X13620500Y-11494786D01*
X13634786Y-11523357D01*
X13649071Y-11580500D01*
X13649071Y-11651929D01*
X13634786Y-11709071D01*
X13620500Y-11737643D01*
X13606214Y-11751929D01*
X13577643Y-11766214D01*
X13549071Y-11766214D01*
X13520500Y-11751929D01*
X13506214Y-11737643D01*
X13491928Y-11709071D01*
X13477643Y-11651929D01*
X13477643Y-11580500D01*
X13491928Y-11523357D01*
X13506214Y-11494786D01*
X13520500Y-11480500D01*
X13549071Y-11466214D01*
X13777643Y-11737643D02*
X13791928Y-11751929D01*
X13777643Y-11766214D01*
X13763357Y-11751929D01*
X13777643Y-11737643D01*
X13777643Y-11766214D01*
X14049071Y-11566214D02*
X14049071Y-11766214D01*
X13977643Y-11451929D02*
X13906214Y-11666214D01*
X14091928Y-11666214D01*
X14263357Y-11466214D02*
X14291928Y-11466214D01*
X14320500Y-11480500D01*
X14334786Y-11494786D01*
X14349071Y-11523357D01*
X14363357Y-11580500D01*
X14363357Y-11651929D01*
X14349071Y-11709071D01*
X14334786Y-11737643D01*
X14320500Y-11751929D01*
X14291928Y-11766214D01*
X14263357Y-11766214D01*
X14234786Y-11751929D01*
X14220500Y-11737643D01*
X14206214Y-11709071D01*
X14191928Y-11651929D01*
X14191928Y-11580500D01*
X14206214Y-11523357D01*
X14220500Y-11494786D01*
X14234786Y-11480500D01*
X14263357Y-11466214D01*
X14491928Y-11766214D02*
X14491928Y-11566214D01*
X14491928Y-11594786D02*
X14506214Y-11580500D01*
X14534786Y-11566214D01*
X14577643Y-11566214D01*
X14606214Y-11580500D01*
X14620500Y-11609071D01*
X14620500Y-11766214D01*
X14620500Y-11609071D02*
X14634786Y-11580500D01*
X14663357Y-11566214D01*
X14706214Y-11566214D01*
X14734786Y-11580500D01*
X14749071Y-11609071D01*
X14749071Y-11766214D01*
X14891928Y-11766214D02*
X14891928Y-11566214D01*
X14891928Y-11594786D02*
X14906214Y-11580500D01*
X14934786Y-11566214D01*
X14977643Y-11566214D01*
X15006214Y-11580500D01*
X15020500Y-11609071D01*
X15020500Y-11766214D01*
X15020500Y-11609071D02*
X15034786Y-11580500D01*
X15063357Y-11566214D01*
X15106214Y-11566214D01*
X15134786Y-11580500D01*
X15149071Y-11609071D01*
X15149071Y-11766214D01*
X15734786Y-11451929D02*
X15477643Y-11837643D01*
X16120500Y-11466214D02*
X16149071Y-11466214D01*
X16177643Y-11480500D01*
X16191928Y-11494786D01*
X16206214Y-11523357D01*
X16220500Y-11580500D01*
X16220500Y-11651929D01*
X16206214Y-11709071D01*
X16191928Y-11737643D01*
X16177643Y-11751929D01*
X16149071Y-11766214D01*
X16120500Y-11766214D01*
X16091928Y-11751929D01*
X16077643Y-11737643D01*
X16063357Y-11709071D01*
X16049071Y-11651929D01*
X16049071Y-11580500D01*
X16063357Y-11523357D01*
X16077643Y-11494786D01*
X16091928Y-11480500D01*
X16120500Y-11466214D01*
X16349071Y-11737643D02*
X16363357Y-11751929D01*
X16349071Y-11766214D01*
X16334786Y-11751929D01*
X16349071Y-11737643D01*
X16349071Y-11766214D01*
X16549071Y-11466214D02*
X16577643Y-11466214D01*
X16606214Y-11480500D01*
X16620500Y-11494786D01*
X16634786Y-11523357D01*
X16649071Y-11580500D01*
X16649071Y-11651929D01*
X16634786Y-11709071D01*
X16620500Y-11737643D01*
X16606214Y-11751929D01*
X16577643Y-11766214D01*
X16549071Y-11766214D01*
X16520500Y-11751929D01*
X16506214Y-11737643D01*
X16491928Y-11709071D01*
X16477643Y-11651929D01*
X16477643Y-11580500D01*
X16491928Y-11523357D01*
X16506214Y-11494786D01*
X16520500Y-11480500D01*
X16549071Y-11466214D01*
X16934786Y-11766214D02*
X16763357Y-11766214D01*
X16849071Y-11766214D02*
X16849071Y-11466214D01*
X16820500Y-11509071D01*
X16791928Y-11537643D01*
X16763357Y-11551929D01*
X17191928Y-11466214D02*
X17134786Y-11466214D01*
X17106214Y-11480500D01*
X17091928Y-11494786D01*
X17063357Y-11537643D01*
X17049071Y-11594786D01*
X17049071Y-11709071D01*
X17063357Y-11737643D01*
X17077643Y-11751929D01*
X17106214Y-11766214D01*
X17163357Y-11766214D01*
X17191928Y-11751929D01*
X17206214Y-11737643D01*
X17220500Y-11709071D01*
X17220500Y-11637643D01*
X17206214Y-11609071D01*
X17191928Y-11594786D01*
X17163357Y-11580500D01*
X17106214Y-11580500D01*
X17077643Y-11594786D01*
X17063357Y-11609071D01*
X17049071Y-11637643D01*
X17334786Y-11466214D02*
X17334786Y-11523357D01*
X17449071Y-11466214D02*
X17449071Y-11523357D01*
X17891928Y-11880500D02*
X17877643Y-11866214D01*
X17849071Y-11823357D01*
X17834786Y-11794786D01*
X17820500Y-11751929D01*
X17806214Y-11680500D01*
X17806214Y-11623357D01*
X17820500Y-11551929D01*
X17834786Y-11509071D01*
X17849071Y-11480500D01*
X17877643Y-11437643D01*
X17891928Y-11423357D01*
X17991928Y-11494786D02*
X18006214Y-11480500D01*
X18034786Y-11466214D01*
X18106214Y-11466214D01*
X18134786Y-11480500D01*
X18149071Y-11494786D01*
X18163357Y-11523357D01*
X18163357Y-11551929D01*
X18149071Y-11594786D01*
X17977643Y-11766214D01*
X18163357Y-11766214D01*
X18520500Y-11766214D02*
X18520500Y-11466214D01*
X18649071Y-11766214D02*
X18649071Y-11609071D01*
X18634786Y-11580500D01*
X18606214Y-11566214D01*
X18563357Y-11566214D01*
X18534786Y-11580500D01*
X18520500Y-11594786D01*
X18834786Y-11766214D02*
X18806214Y-11751929D01*
X18791928Y-11737643D01*
X18777643Y-11709071D01*
X18777643Y-11623357D01*
X18791928Y-11594786D01*
X18806214Y-11580500D01*
X18834786Y-11566214D01*
X18877643Y-11566214D01*
X18906214Y-11580500D01*
X18920500Y-11594786D01*
X18934786Y-11623357D01*
X18934786Y-11709071D01*
X18920500Y-11737643D01*
X18906214Y-11751929D01*
X18877643Y-11766214D01*
X18834786Y-11766214D01*
X19106214Y-11766214D02*
X19077643Y-11751929D01*
X19063357Y-11723357D01*
X19063357Y-11466214D01*
X19334786Y-11751929D02*
X19306214Y-11766214D01*
X19249071Y-11766214D01*
X19220500Y-11751929D01*
X19206214Y-11723357D01*
X19206214Y-11609071D01*
X19220500Y-11580500D01*
X19249071Y-11566214D01*
X19306214Y-11566214D01*
X19334786Y-11580500D01*
X19349071Y-11609071D01*
X19349071Y-11637643D01*
X19206214Y-11666214D01*
X19463357Y-11751929D02*
X19491928Y-11766214D01*
X19549071Y-11766214D01*
X19577643Y-11751929D01*
X19591928Y-11723357D01*
X19591928Y-11709071D01*
X19577643Y-11680500D01*
X19549071Y-11666214D01*
X19506214Y-11666214D01*
X19477643Y-11651929D01*
X19463357Y-11623357D01*
X19463357Y-11609071D01*
X19477643Y-11580500D01*
X19506214Y-11566214D01*
X19549071Y-11566214D01*
X19577643Y-11580500D01*
X19691928Y-11880500D02*
X19706214Y-11866214D01*
X19734786Y-11823357D01*
X19749071Y-11794786D01*
X19763357Y-11751929D01*
X19777643Y-11680500D01*
X19777643Y-11623357D01*
X19763357Y-11551929D01*
X19749071Y-11509071D01*
X19734786Y-11480500D01*
X19706214Y-11437643D01*
X19691928Y-11423357D01*
X13205500Y-12026500D02*
G75*
G03X13205500Y-12026500I-40000J0D01*
G01*
X13549071Y-11862214D02*
X13577643Y-11862214D01*
X13606214Y-11876500D01*
X13620500Y-11890786D01*
X13634786Y-11919357D01*
X13649071Y-11976500D01*
X13649071Y-12047929D01*
X13634786Y-12105071D01*
X13620500Y-12133643D01*
X13606214Y-12147929D01*
X13577643Y-12162214D01*
X13549071Y-12162214D01*
X13520500Y-12147929D01*
X13506214Y-12133643D01*
X13491928Y-12105071D01*
X13477643Y-12047929D01*
X13477643Y-11976500D01*
X13491928Y-11919357D01*
X13506214Y-11890786D01*
X13520500Y-11876500D01*
X13549071Y-11862214D01*
X13777643Y-12133643D02*
X13791928Y-12147929D01*
X13777643Y-12162214D01*
X13763357Y-12147929D01*
X13777643Y-12133643D01*
X13777643Y-12162214D01*
X13963357Y-11990786D02*
X13934786Y-11976500D01*
X13920500Y-11962214D01*
X13906214Y-11933643D01*
X13906214Y-11919357D01*
X13920500Y-11890786D01*
X13934786Y-11876500D01*
X13963357Y-11862214D01*
X14020500Y-11862214D01*
X14049071Y-11876500D01*
X14063357Y-11890786D01*
X14077643Y-11919357D01*
X14077643Y-11933643D01*
X14063357Y-11962214D01*
X14049071Y-11976500D01*
X14020500Y-11990786D01*
X13963357Y-11990786D01*
X13934786Y-12005071D01*
X13920500Y-12019357D01*
X13906214Y-12047929D01*
X13906214Y-12105071D01*
X13920500Y-12133643D01*
X13934786Y-12147929D01*
X13963357Y-12162214D01*
X14020500Y-12162214D01*
X14049071Y-12147929D01*
X14063357Y-12133643D01*
X14077643Y-12105071D01*
X14077643Y-12047929D01*
X14063357Y-12019357D01*
X14049071Y-12005071D01*
X14020500Y-11990786D01*
X14263357Y-11862214D02*
X14291928Y-11862214D01*
X14320500Y-11876500D01*
X14334786Y-11890786D01*
X14349071Y-11919357D01*
X14363357Y-11976500D01*
X14363357Y-12047929D01*
X14349071Y-12105071D01*
X14334786Y-12133643D01*
X14320500Y-12147929D01*
X14291928Y-12162214D01*
X14263357Y-12162214D01*
X14234786Y-12147929D01*
X14220500Y-12133643D01*
X14206214Y-12105071D01*
X14191928Y-12047929D01*
X14191928Y-11976500D01*
X14206214Y-11919357D01*
X14220500Y-11890786D01*
X14234786Y-11876500D01*
X14263357Y-11862214D01*
X14491928Y-12162214D02*
X14491928Y-11962214D01*
X14491928Y-11990786D02*
X14506214Y-11976500D01*
X14534786Y-11962214D01*
X14577643Y-11962214D01*
X14606214Y-11976500D01*
X14620500Y-12005071D01*
X14620500Y-12162214D01*
X14620500Y-12005071D02*
X14634786Y-11976500D01*
X14663357Y-11962214D01*
X14706214Y-11962214D01*
X14734786Y-11976500D01*
X14749071Y-12005071D01*
X14749071Y-12162214D01*
X14891928Y-12162214D02*
X14891928Y-11962214D01*
X14891928Y-11990786D02*
X14906214Y-11976500D01*
X14934786Y-11962214D01*
X14977643Y-11962214D01*
X15006214Y-11976500D01*
X15020500Y-12005071D01*
X15020500Y-12162214D01*
X15020500Y-12005071D02*
X15034786Y-11976500D01*
X15063357Y-11962214D01*
X15106214Y-11962214D01*
X15134786Y-11976500D01*
X15149071Y-12005071D01*
X15149071Y-12162214D01*
X15734786Y-11847929D02*
X15477643Y-12233643D01*
X16120500Y-11862214D02*
X16149071Y-11862214D01*
X16177643Y-11876500D01*
X16191928Y-11890786D01*
X16206214Y-11919357D01*
X16220500Y-11976500D01*
X16220500Y-12047929D01*
X16206214Y-12105071D01*
X16191928Y-12133643D01*
X16177643Y-12147929D01*
X16149071Y-12162214D01*
X16120500Y-12162214D01*
X16091928Y-12147929D01*
X16077643Y-12133643D01*
X16063357Y-12105071D01*
X16049071Y-12047929D01*
X16049071Y-11976500D01*
X16063357Y-11919357D01*
X16077643Y-11890786D01*
X16091928Y-11876500D01*
X16120500Y-11862214D01*
X16349071Y-12133643D02*
X16363357Y-12147929D01*
X16349071Y-12162214D01*
X16334786Y-12147929D01*
X16349071Y-12133643D01*
X16349071Y-12162214D01*
X16549071Y-11862214D02*
X16577643Y-11862214D01*
X16606214Y-11876500D01*
X16620500Y-11890786D01*
X16634786Y-11919357D01*
X16649071Y-11976500D01*
X16649071Y-12047929D01*
X16634786Y-12105071D01*
X16620500Y-12133643D01*
X16606214Y-12147929D01*
X16577643Y-12162214D01*
X16549071Y-12162214D01*
X16520500Y-12147929D01*
X16506214Y-12133643D01*
X16491928Y-12105071D01*
X16477643Y-12047929D01*
X16477643Y-11976500D01*
X16491928Y-11919357D01*
X16506214Y-11890786D01*
X16520500Y-11876500D01*
X16549071Y-11862214D01*
X16749071Y-11862214D02*
X16934786Y-11862214D01*
X16834786Y-11976500D01*
X16877643Y-11976500D01*
X16906214Y-11990786D01*
X16920500Y-12005071D01*
X16934786Y-12033643D01*
X16934786Y-12105071D01*
X16920500Y-12133643D01*
X16906214Y-12147929D01*
X16877643Y-12162214D01*
X16791928Y-12162214D01*
X16763357Y-12147929D01*
X16749071Y-12133643D01*
X17220500Y-12162214D02*
X17049071Y-12162214D01*
X17134786Y-12162214D02*
X17134786Y-11862214D01*
X17106214Y-11905071D01*
X17077643Y-11933643D01*
X17049071Y-11947929D01*
X17334786Y-11862214D02*
X17334786Y-11919357D01*
X17449071Y-11862214D02*
X17449071Y-11919357D01*
X17891928Y-12276500D02*
X17877643Y-12262214D01*
X17849071Y-12219357D01*
X17834786Y-12190786D01*
X17820500Y-12147929D01*
X17806214Y-12076500D01*
X17806214Y-12019357D01*
X17820500Y-11947929D01*
X17834786Y-11905071D01*
X17849071Y-11876500D01*
X17877643Y-11833643D01*
X17891928Y-11819357D01*
X18134786Y-11962214D02*
X18134786Y-12162214D01*
X18063357Y-11847929D02*
X17991928Y-12062214D01*
X18177643Y-12062214D01*
X18334786Y-11990786D02*
X18306214Y-11976500D01*
X18291928Y-11962214D01*
X18277643Y-11933643D01*
X18277643Y-11919357D01*
X18291928Y-11890786D01*
X18306214Y-11876500D01*
X18334786Y-11862214D01*
X18391928Y-11862214D01*
X18420500Y-11876500D01*
X18434786Y-11890786D01*
X18449071Y-11919357D01*
X18449071Y-11933643D01*
X18434786Y-11962214D01*
X18420500Y-11976500D01*
X18391928Y-11990786D01*
X18334786Y-11990786D01*
X18306214Y-12005071D01*
X18291928Y-12019357D01*
X18277643Y-12047929D01*
X18277643Y-12105071D01*
X18291928Y-12133643D01*
X18306214Y-12147929D01*
X18334786Y-12162214D01*
X18391928Y-12162214D01*
X18420500Y-12147929D01*
X18434786Y-12133643D01*
X18449071Y-12105071D01*
X18449071Y-12047929D01*
X18434786Y-12019357D01*
X18420500Y-12005071D01*
X18391928Y-11990786D01*
X18806214Y-12162214D02*
X18806214Y-11862214D01*
X18934786Y-12162214D02*
X18934786Y-12005071D01*
X18920500Y-11976500D01*
X18891928Y-11962214D01*
X18849071Y-11962214D01*
X18820500Y-11976500D01*
X18806214Y-11990786D01*
X19120500Y-12162214D02*
X19091928Y-12147929D01*
X19077643Y-12133643D01*
X19063357Y-12105071D01*
X19063357Y-12019357D01*
X19077643Y-11990786D01*
X19091928Y-11976500D01*
X19120500Y-11962214D01*
X19163357Y-11962214D01*
X19191928Y-11976500D01*
X19206214Y-11990786D01*
X19220500Y-12019357D01*
X19220500Y-12105071D01*
X19206214Y-12133643D01*
X19191928Y-12147929D01*
X19163357Y-12162214D01*
X19120500Y-12162214D01*
X19391928Y-12162214D02*
X19363357Y-12147929D01*
X19349071Y-12119357D01*
X19349071Y-11862214D01*
X19620500Y-12147929D02*
X19591928Y-12162214D01*
X19534786Y-12162214D01*
X19506214Y-12147929D01*
X19491928Y-12119357D01*
X19491928Y-12005071D01*
X19506214Y-11976500D01*
X19534786Y-11962214D01*
X19591928Y-11962214D01*
X19620500Y-11976500D01*
X19634786Y-12005071D01*
X19634786Y-12033643D01*
X19491928Y-12062214D01*
X19749071Y-12147929D02*
X19777643Y-12162214D01*
X19834786Y-12162214D01*
X19863357Y-12147929D01*
X19877643Y-12119357D01*
X19877643Y-12105071D01*
X19863357Y-12076500D01*
X19834786Y-12062214D01*
X19791928Y-12062214D01*
X19763357Y-12047929D01*
X19749071Y-12019357D01*
X19749071Y-12005071D01*
X19763357Y-11976500D01*
X19791928Y-11962214D01*
X19834786Y-11962214D01*
X19863357Y-11976500D01*
X19977643Y-12276500D02*
X19991928Y-12262214D01*
X20020500Y-12219357D01*
X20034786Y-12190786D01*
X20049071Y-12147929D01*
X20063357Y-12076500D01*
X20063357Y-12019357D01*
X20049071Y-11947929D01*
X20034786Y-11905071D01*
X20020500Y-11876500D01*
X19991928Y-11833643D01*
X19977643Y-11819357D01*
X13159500Y-12376500D02*
X13159500Y-12468500D01*
X13113500Y-12422500D02*
X13205500Y-12422500D01*
X13549071Y-12258214D02*
X13577643Y-12258214D01*
X13606214Y-12272500D01*
X13620500Y-12286786D01*
X13634786Y-12315357D01*
X13649071Y-12372500D01*
X13649071Y-12443929D01*
X13634786Y-12501071D01*
X13620500Y-12529643D01*
X13606214Y-12543929D01*
X13577643Y-12558214D01*
X13549071Y-12558214D01*
X13520500Y-12543929D01*
X13506214Y-12529643D01*
X13491928Y-12501071D01*
X13477643Y-12443929D01*
X13477643Y-12372500D01*
X13491928Y-12315357D01*
X13506214Y-12286786D01*
X13520500Y-12272500D01*
X13549071Y-12258214D01*
X13777643Y-12529643D02*
X13791928Y-12543929D01*
X13777643Y-12558214D01*
X13763357Y-12543929D01*
X13777643Y-12529643D01*
X13777643Y-12558214D01*
X13934786Y-12558214D02*
X13991928Y-12558214D01*
X14020500Y-12543929D01*
X14034786Y-12529643D01*
X14063357Y-12486786D01*
X14077643Y-12429643D01*
X14077643Y-12315357D01*
X14063357Y-12286786D01*
X14049071Y-12272500D01*
X14020500Y-12258214D01*
X13963357Y-12258214D01*
X13934786Y-12272500D01*
X13920500Y-12286786D01*
X13906214Y-12315357D01*
X13906214Y-12386786D01*
X13920500Y-12415357D01*
X13934786Y-12429643D01*
X13963357Y-12443929D01*
X14020500Y-12443929D01*
X14049071Y-12429643D01*
X14063357Y-12415357D01*
X14077643Y-12386786D01*
X14191928Y-12286786D02*
X14206214Y-12272500D01*
X14234786Y-12258214D01*
X14306214Y-12258214D01*
X14334786Y-12272500D01*
X14349071Y-12286786D01*
X14363357Y-12315357D01*
X14363357Y-12343929D01*
X14349071Y-12386786D01*
X14177643Y-12558214D01*
X14363357Y-12558214D01*
X14491928Y-12558214D02*
X14491928Y-12358214D01*
X14491928Y-12386786D02*
X14506214Y-12372500D01*
X14534786Y-12358214D01*
X14577643Y-12358214D01*
X14606214Y-12372500D01*
X14620500Y-12401071D01*
X14620500Y-12558214D01*
X14620500Y-12401071D02*
X14634786Y-12372500D01*
X14663357Y-12358214D01*
X14706214Y-12358214D01*
X14734786Y-12372500D01*
X14749071Y-12401071D01*
X14749071Y-12558214D01*
X14891928Y-12558214D02*
X14891928Y-12358214D01*
X14891928Y-12386786D02*
X14906214Y-12372500D01*
X14934786Y-12358214D01*
X14977643Y-12358214D01*
X15006214Y-12372500D01*
X15020500Y-12401071D01*
X15020500Y-12558214D01*
X15020500Y-12401071D02*
X15034786Y-12372500D01*
X15063357Y-12358214D01*
X15106214Y-12358214D01*
X15134786Y-12372500D01*
X15149071Y-12401071D01*
X15149071Y-12558214D01*
X15734786Y-12243929D02*
X15477643Y-12629643D01*
X16120500Y-12258214D02*
X16149071Y-12258214D01*
X16177643Y-12272500D01*
X16191928Y-12286786D01*
X16206214Y-12315357D01*
X16220500Y-12372500D01*
X16220500Y-12443929D01*
X16206214Y-12501071D01*
X16191928Y-12529643D01*
X16177643Y-12543929D01*
X16149071Y-12558214D01*
X16120500Y-12558214D01*
X16091928Y-12543929D01*
X16077643Y-12529643D01*
X16063357Y-12501071D01*
X16049071Y-12443929D01*
X16049071Y-12372500D01*
X16063357Y-12315357D01*
X16077643Y-12286786D01*
X16091928Y-12272500D01*
X16120500Y-12258214D01*
X16349071Y-12529643D02*
X16363357Y-12543929D01*
X16349071Y-12558214D01*
X16334786Y-12543929D01*
X16349071Y-12529643D01*
X16349071Y-12558214D01*
X16549071Y-12258214D02*
X16577643Y-12258214D01*
X16606214Y-12272500D01*
X16620500Y-12286786D01*
X16634786Y-12315357D01*
X16649071Y-12372500D01*
X16649071Y-12443929D01*
X16634786Y-12501071D01*
X16620500Y-12529643D01*
X16606214Y-12543929D01*
X16577643Y-12558214D01*
X16549071Y-12558214D01*
X16520500Y-12543929D01*
X16506214Y-12529643D01*
X16491928Y-12501071D01*
X16477643Y-12443929D01*
X16477643Y-12372500D01*
X16491928Y-12315357D01*
X16506214Y-12286786D01*
X16520500Y-12272500D01*
X16549071Y-12258214D01*
X16749071Y-12258214D02*
X16934786Y-12258214D01*
X16834786Y-12372500D01*
X16877643Y-12372500D01*
X16906214Y-12386786D01*
X16920500Y-12401071D01*
X16934786Y-12429643D01*
X16934786Y-12501071D01*
X16920500Y-12529643D01*
X16906214Y-12543929D01*
X16877643Y-12558214D01*
X16791928Y-12558214D01*
X16763357Y-12543929D01*
X16749071Y-12529643D01*
X17191928Y-12258214D02*
X17134786Y-12258214D01*
X17106214Y-12272500D01*
X17091928Y-12286786D01*
X17063357Y-12329643D01*
X17049071Y-12386786D01*
X17049071Y-12501071D01*
X17063357Y-12529643D01*
X17077643Y-12543929D01*
X17106214Y-12558214D01*
X17163357Y-12558214D01*
X17191928Y-12543929D01*
X17206214Y-12529643D01*
X17220500Y-12501071D01*
X17220500Y-12429643D01*
X17206214Y-12401071D01*
X17191928Y-12386786D01*
X17163357Y-12372500D01*
X17106214Y-12372500D01*
X17077643Y-12386786D01*
X17063357Y-12401071D01*
X17049071Y-12429643D01*
X17334786Y-12258214D02*
X17334786Y-12315357D01*
X17449071Y-12258214D02*
X17449071Y-12315357D01*
X17891928Y-12672500D02*
X17877643Y-12658214D01*
X17849071Y-12615357D01*
X17834786Y-12586786D01*
X17820500Y-12543929D01*
X17806214Y-12472500D01*
X17806214Y-12415357D01*
X17820500Y-12343929D01*
X17834786Y-12301071D01*
X17849071Y-12272500D01*
X17877643Y-12229643D01*
X17891928Y-12215357D01*
X18134786Y-12358214D02*
X18134786Y-12558214D01*
X18063357Y-12243929D02*
X17991928Y-12458214D01*
X18177643Y-12458214D01*
X18520500Y-12558214D02*
X18520500Y-12258214D01*
X18649071Y-12558214D02*
X18649071Y-12401071D01*
X18634786Y-12372500D01*
X18606214Y-12358214D01*
X18563357Y-12358214D01*
X18534786Y-12372500D01*
X18520500Y-12386786D01*
X18834786Y-12558214D02*
X18806214Y-12543929D01*
X18791928Y-12529643D01*
X18777643Y-12501071D01*
X18777643Y-12415357D01*
X18791928Y-12386786D01*
X18806214Y-12372500D01*
X18834786Y-12358214D01*
X18877643Y-12358214D01*
X18906214Y-12372500D01*
X18920500Y-12386786D01*
X18934786Y-12415357D01*
X18934786Y-12501071D01*
X18920500Y-12529643D01*
X18906214Y-12543929D01*
X18877643Y-12558214D01*
X18834786Y-12558214D01*
X19106214Y-12558214D02*
X19077643Y-12543929D01*
X19063357Y-12515357D01*
X19063357Y-12258214D01*
X19334786Y-12543929D02*
X19306214Y-12558214D01*
X19249071Y-12558214D01*
X19220500Y-12543929D01*
X19206214Y-12515357D01*
X19206214Y-12401071D01*
X19220500Y-12372500D01*
X19249071Y-12358214D01*
X19306214Y-12358214D01*
X19334786Y-12372500D01*
X19349071Y-12401071D01*
X19349071Y-12429643D01*
X19206214Y-12458214D01*
X19463357Y-12543929D02*
X19491928Y-12558214D01*
X19549071Y-12558214D01*
X19577643Y-12543929D01*
X19591928Y-12515357D01*
X19591928Y-12501071D01*
X19577643Y-12472500D01*
X19549071Y-12458214D01*
X19506214Y-12458214D01*
X19477643Y-12443929D01*
X19463357Y-12415357D01*
X19463357Y-12401071D01*
X19477643Y-12372500D01*
X19506214Y-12358214D01*
X19549071Y-12358214D01*
X19577643Y-12372500D01*
X19691928Y-12672500D02*
X19706214Y-12658214D01*
X19734786Y-12615357D01*
X19749071Y-12586786D01*
X19763357Y-12543929D01*
X19777643Y-12472500D01*
X19777643Y-12415357D01*
X19763357Y-12343929D01*
X19749071Y-12301071D01*
X19734786Y-12272500D01*
X19706214Y-12229643D01*
X19691928Y-12215357D01*
X13171818Y-12899818D02*
X13171818Y-12737182D01*
X13009182Y-12737182D01*
X13009182Y-12899818D01*
X13171818Y-12899818D01*
X13477643Y-12682786D02*
X13491928Y-12668500D01*
X13520500Y-12654214D01*
X13591928Y-12654214D01*
X13620500Y-12668500D01*
X13634786Y-12682786D01*
X13649071Y-12711357D01*
X13649071Y-12739929D01*
X13634786Y-12782786D01*
X13463357Y-12954214D01*
X13649071Y-12954214D01*
X13777643Y-12925643D02*
X13791928Y-12939929D01*
X13777643Y-12954214D01*
X13763357Y-12939929D01*
X13777643Y-12925643D01*
X13777643Y-12954214D01*
X13891928Y-12654214D02*
X14077643Y-12654214D01*
X13977643Y-12768500D01*
X14020500Y-12768500D01*
X14049071Y-12782786D01*
X14063357Y-12797071D01*
X14077643Y-12825643D01*
X14077643Y-12897071D01*
X14063357Y-12925643D01*
X14049071Y-12939929D01*
X14020500Y-12954214D01*
X13934786Y-12954214D01*
X13906214Y-12939929D01*
X13891928Y-12925643D01*
X14263357Y-12654214D02*
X14291928Y-12654214D01*
X14320500Y-12668500D01*
X14334786Y-12682786D01*
X14349071Y-12711357D01*
X14363357Y-12768500D01*
X14363357Y-12839929D01*
X14349071Y-12897071D01*
X14334786Y-12925643D01*
X14320500Y-12939929D01*
X14291928Y-12954214D01*
X14263357Y-12954214D01*
X14234786Y-12939929D01*
X14220500Y-12925643D01*
X14206214Y-12897071D01*
X14191928Y-12839929D01*
X14191928Y-12768500D01*
X14206214Y-12711357D01*
X14220500Y-12682786D01*
X14234786Y-12668500D01*
X14263357Y-12654214D01*
X14491928Y-12954214D02*
X14491928Y-12754214D01*
X14491928Y-12782786D02*
X14506214Y-12768500D01*
X14534786Y-12754214D01*
X14577643Y-12754214D01*
X14606214Y-12768500D01*
X14620500Y-12797071D01*
X14620500Y-12954214D01*
X14620500Y-12797071D02*
X14634786Y-12768500D01*
X14663357Y-12754214D01*
X14706214Y-12754214D01*
X14734786Y-12768500D01*
X14749071Y-12797071D01*
X14749071Y-12954214D01*
X14891928Y-12954214D02*
X14891928Y-12754214D01*
X14891928Y-12782786D02*
X14906214Y-12768500D01*
X14934786Y-12754214D01*
X14977643Y-12754214D01*
X15006214Y-12768500D01*
X15020500Y-12797071D01*
X15020500Y-12954214D01*
X15020500Y-12797071D02*
X15034786Y-12768500D01*
X15063357Y-12754214D01*
X15106214Y-12754214D01*
X15134786Y-12768500D01*
X15149071Y-12797071D01*
X15149071Y-12954214D01*
X15734786Y-12639929D02*
X15477643Y-13025643D01*
X16120500Y-12654214D02*
X16149071Y-12654214D01*
X16177643Y-12668500D01*
X16191928Y-12682786D01*
X16206214Y-12711357D01*
X16220500Y-12768500D01*
X16220500Y-12839929D01*
X16206214Y-12897071D01*
X16191928Y-12925643D01*
X16177643Y-12939929D01*
X16149071Y-12954214D01*
X16120500Y-12954214D01*
X16091928Y-12939929D01*
X16077643Y-12925643D01*
X16063357Y-12897071D01*
X16049071Y-12839929D01*
X16049071Y-12768500D01*
X16063357Y-12711357D01*
X16077643Y-12682786D01*
X16091928Y-12668500D01*
X16120500Y-12654214D01*
X16349071Y-12925643D02*
X16363357Y-12939929D01*
X16349071Y-12954214D01*
X16334786Y-12939929D01*
X16349071Y-12925643D01*
X16349071Y-12954214D01*
X16549071Y-12654214D02*
X16577643Y-12654214D01*
X16606214Y-12668500D01*
X16620500Y-12682786D01*
X16634786Y-12711357D01*
X16649071Y-12768500D01*
X16649071Y-12839929D01*
X16634786Y-12897071D01*
X16620500Y-12925643D01*
X16606214Y-12939929D01*
X16577643Y-12954214D01*
X16549071Y-12954214D01*
X16520500Y-12939929D01*
X16506214Y-12925643D01*
X16491928Y-12897071D01*
X16477643Y-12839929D01*
X16477643Y-12768500D01*
X16491928Y-12711357D01*
X16506214Y-12682786D01*
X16520500Y-12668500D01*
X16549071Y-12654214D01*
X16791928Y-12954214D02*
X16849071Y-12954214D01*
X16877643Y-12939929D01*
X16891928Y-12925643D01*
X16920500Y-12882786D01*
X16934786Y-12825643D01*
X16934786Y-12711357D01*
X16920500Y-12682786D01*
X16906214Y-12668500D01*
X16877643Y-12654214D01*
X16820500Y-12654214D01*
X16791928Y-12668500D01*
X16777643Y-12682786D01*
X16763357Y-12711357D01*
X16763357Y-12782786D01*
X16777643Y-12811357D01*
X16791928Y-12825643D01*
X16820500Y-12839929D01*
X16877643Y-12839929D01*
X16906214Y-12825643D01*
X16920500Y-12811357D01*
X16934786Y-12782786D01*
X17220500Y-12954214D02*
X17049071Y-12954214D01*
X17134786Y-12954214D02*
X17134786Y-12654214D01*
X17106214Y-12697071D01*
X17077643Y-12725643D01*
X17049071Y-12739929D01*
X17334786Y-12654214D02*
X17334786Y-12711357D01*
X17449071Y-12654214D02*
X17449071Y-12711357D01*
X17891928Y-13068500D02*
X17877643Y-13054214D01*
X17849071Y-13011357D01*
X17834786Y-12982786D01*
X17820500Y-12939929D01*
X17806214Y-12868500D01*
X17806214Y-12811357D01*
X17820500Y-12739929D01*
X17834786Y-12697071D01*
X17849071Y-12668500D01*
X17877643Y-12625643D01*
X17891928Y-12611357D01*
X17991928Y-12682786D02*
X18006214Y-12668500D01*
X18034786Y-12654214D01*
X18106214Y-12654214D01*
X18134786Y-12668500D01*
X18149071Y-12682786D01*
X18163357Y-12711357D01*
X18163357Y-12739929D01*
X18149071Y-12782786D01*
X17977643Y-12954214D01*
X18163357Y-12954214D01*
X18520500Y-12954214D02*
X18520500Y-12654214D01*
X18649071Y-12954214D02*
X18649071Y-12797071D01*
X18634786Y-12768500D01*
X18606214Y-12754214D01*
X18563357Y-12754214D01*
X18534786Y-12768500D01*
X18520500Y-12782786D01*
X18834786Y-12954214D02*
X18806214Y-12939929D01*
X18791928Y-12925643D01*
X18777643Y-12897071D01*
X18777643Y-12811357D01*
X18791928Y-12782786D01*
X18806214Y-12768500D01*
X18834786Y-12754214D01*
X18877643Y-12754214D01*
X18906214Y-12768500D01*
X18920500Y-12782786D01*
X18934786Y-12811357D01*
X18934786Y-12897071D01*
X18920500Y-12925643D01*
X18906214Y-12939929D01*
X18877643Y-12954214D01*
X18834786Y-12954214D01*
X19106214Y-12954214D02*
X19077643Y-12939929D01*
X19063357Y-12911357D01*
X19063357Y-12654214D01*
X19334786Y-12939929D02*
X19306214Y-12954214D01*
X19249071Y-12954214D01*
X19220500Y-12939929D01*
X19206214Y-12911357D01*
X19206214Y-12797071D01*
X19220500Y-12768500D01*
X19249071Y-12754214D01*
X19306214Y-12754214D01*
X19334786Y-12768500D01*
X19349071Y-12797071D01*
X19349071Y-12825643D01*
X19206214Y-12854214D01*
X19463357Y-12939929D02*
X19491928Y-12954214D01*
X19549071Y-12954214D01*
X19577643Y-12939929D01*
X19591928Y-12911357D01*
X19591928Y-12897071D01*
X19577643Y-12868500D01*
X19549071Y-12854214D01*
X19506214Y-12854214D01*
X19477643Y-12839929D01*
X19463357Y-12811357D01*
X19463357Y-12797071D01*
X19477643Y-12768500D01*
X19506214Y-12754214D01*
X19549071Y-12754214D01*
X19577643Y-12768500D01*
X19691928Y-13068500D02*
X19706214Y-13054214D01*
X19734786Y-13011357D01*
X19749071Y-12982786D01*
X19763357Y-12939929D01*
X19777643Y-12868500D01*
X19777643Y-12811357D01*
X19763357Y-12739929D01*
X19749071Y-12697071D01*
X19734786Y-12668500D01*
X19706214Y-12625643D01*
X19691928Y-12611357D01*
M02*
