G04 #@! TF.GenerationSoftware,KiCad,Pcbnew,5.1.5*
G04 #@! TF.CreationDate,2020-02-20T08:26:26-05:00*
G04 #@! TF.ProjectId,bluefish-hardware,626c7565-6669-4736-982d-686172647761,rev?*
G04 #@! TF.SameCoordinates,Original*
G04 #@! TF.FileFunction,Soldermask,Top*
G04 #@! TF.FilePolarity,Negative*
%FSLAX46Y46*%
G04 Gerber Fmt 4.6, Leading zero omitted, Abs format (unit mm)*
G04 Created by KiCad (PCBNEW 5.1.5) date 2020-02-20 08:26:26*
%MOMM*%
%LPD*%
G04 APERTURE LIST*
%ADD10C,0.100000*%
G04 APERTURE END LIST*
D10*
G36*
X197322585Y-100608802D02*
G01*
X197472410Y-100638604D01*
X197754674Y-100755521D01*
X198008705Y-100925259D01*
X198224741Y-101141295D01*
X198394479Y-101395326D01*
X198511396Y-101677590D01*
X198571000Y-101977240D01*
X198571000Y-102282760D01*
X198511396Y-102582410D01*
X198394479Y-102864674D01*
X198224741Y-103118705D01*
X198008705Y-103334741D01*
X197754674Y-103504479D01*
X197472410Y-103621396D01*
X197322585Y-103651198D01*
X197172761Y-103681000D01*
X196867239Y-103681000D01*
X196717415Y-103651198D01*
X196567590Y-103621396D01*
X196285326Y-103504479D01*
X196031295Y-103334741D01*
X195815259Y-103118705D01*
X195645521Y-102864674D01*
X195528604Y-102582410D01*
X195469000Y-102282760D01*
X195469000Y-101977240D01*
X195528604Y-101677590D01*
X195645521Y-101395326D01*
X195815259Y-101141295D01*
X196031295Y-100925259D01*
X196285326Y-100755521D01*
X196567590Y-100638604D01*
X196717415Y-100608802D01*
X196867239Y-100579000D01*
X197172761Y-100579000D01*
X197322585Y-100608802D01*
G37*
G36*
X191394928Y-100511764D02*
G01*
X191416009Y-100518160D01*
X191435445Y-100528548D01*
X191452476Y-100542524D01*
X191466452Y-100559555D01*
X191476840Y-100578991D01*
X191483236Y-100600072D01*
X191486000Y-100628140D01*
X191486000Y-102441860D01*
X191483236Y-102469928D01*
X191476840Y-102491009D01*
X191466452Y-102510445D01*
X191452476Y-102527476D01*
X191435445Y-102541452D01*
X191416009Y-102551840D01*
X191394928Y-102558236D01*
X191366860Y-102561000D01*
X190903140Y-102561000D01*
X190875072Y-102558236D01*
X190853991Y-102551840D01*
X190834555Y-102541452D01*
X190817524Y-102527476D01*
X190803548Y-102510445D01*
X190793160Y-102491009D01*
X190786764Y-102469928D01*
X190784000Y-102441860D01*
X190784000Y-100628140D01*
X190786764Y-100600072D01*
X190793160Y-100578991D01*
X190803548Y-100559555D01*
X190817524Y-100542524D01*
X190834555Y-100528548D01*
X190853991Y-100518160D01*
X190875072Y-100511764D01*
X190903140Y-100509000D01*
X191366860Y-100509000D01*
X191394928Y-100511764D01*
G37*
G36*
X190124928Y-100511764D02*
G01*
X190146009Y-100518160D01*
X190165445Y-100528548D01*
X190182476Y-100542524D01*
X190196452Y-100559555D01*
X190206840Y-100578991D01*
X190213236Y-100600072D01*
X190216000Y-100628140D01*
X190216000Y-102441860D01*
X190213236Y-102469928D01*
X190206840Y-102491009D01*
X190196452Y-102510445D01*
X190182476Y-102527476D01*
X190165445Y-102541452D01*
X190146009Y-102551840D01*
X190124928Y-102558236D01*
X190096860Y-102561000D01*
X189633140Y-102561000D01*
X189605072Y-102558236D01*
X189583991Y-102551840D01*
X189564555Y-102541452D01*
X189547524Y-102527476D01*
X189533548Y-102510445D01*
X189523160Y-102491009D01*
X189516764Y-102469928D01*
X189514000Y-102441860D01*
X189514000Y-100628140D01*
X189516764Y-100600072D01*
X189523160Y-100578991D01*
X189533548Y-100559555D01*
X189547524Y-100542524D01*
X189564555Y-100528548D01*
X189583991Y-100518160D01*
X189605072Y-100511764D01*
X189633140Y-100509000D01*
X190096860Y-100509000D01*
X190124928Y-100511764D01*
G37*
G36*
X188854928Y-100511764D02*
G01*
X188876009Y-100518160D01*
X188895445Y-100528548D01*
X188912476Y-100542524D01*
X188926452Y-100559555D01*
X188936840Y-100578991D01*
X188943236Y-100600072D01*
X188946000Y-100628140D01*
X188946000Y-102441860D01*
X188943236Y-102469928D01*
X188936840Y-102491009D01*
X188926452Y-102510445D01*
X188912476Y-102527476D01*
X188895445Y-102541452D01*
X188876009Y-102551840D01*
X188854928Y-102558236D01*
X188826860Y-102561000D01*
X188363140Y-102561000D01*
X188335072Y-102558236D01*
X188313991Y-102551840D01*
X188294555Y-102541452D01*
X188277524Y-102527476D01*
X188263548Y-102510445D01*
X188253160Y-102491009D01*
X188246764Y-102469928D01*
X188244000Y-102441860D01*
X188244000Y-100628140D01*
X188246764Y-100600072D01*
X188253160Y-100578991D01*
X188263548Y-100559555D01*
X188277524Y-100542524D01*
X188294555Y-100528548D01*
X188313991Y-100518160D01*
X188335072Y-100511764D01*
X188363140Y-100509000D01*
X188826860Y-100509000D01*
X188854928Y-100511764D01*
G37*
G36*
X187584928Y-100511764D02*
G01*
X187606009Y-100518160D01*
X187625445Y-100528548D01*
X187642476Y-100542524D01*
X187656452Y-100559555D01*
X187666840Y-100578991D01*
X187673236Y-100600072D01*
X187676000Y-100628140D01*
X187676000Y-102441860D01*
X187673236Y-102469928D01*
X187666840Y-102491009D01*
X187656452Y-102510445D01*
X187642476Y-102527476D01*
X187625445Y-102541452D01*
X187606009Y-102551840D01*
X187584928Y-102558236D01*
X187556860Y-102561000D01*
X187093140Y-102561000D01*
X187065072Y-102558236D01*
X187043991Y-102551840D01*
X187024555Y-102541452D01*
X187007524Y-102527476D01*
X186993548Y-102510445D01*
X186983160Y-102491009D01*
X186976764Y-102469928D01*
X186974000Y-102441860D01*
X186974000Y-100628140D01*
X186976764Y-100600072D01*
X186983160Y-100578991D01*
X186993548Y-100559555D01*
X187007524Y-100542524D01*
X187024555Y-100528548D01*
X187043991Y-100518160D01*
X187065072Y-100511764D01*
X187093140Y-100509000D01*
X187556860Y-100509000D01*
X187584928Y-100511764D01*
G37*
G36*
X157808228Y-100781703D02*
G01*
X157963100Y-100845853D01*
X158102481Y-100938985D01*
X158221015Y-101057519D01*
X158314147Y-101196900D01*
X158378297Y-101351772D01*
X158411000Y-101516184D01*
X158411000Y-101683816D01*
X158378297Y-101848228D01*
X158314147Y-102003100D01*
X158221015Y-102142481D01*
X158102481Y-102261015D01*
X157963100Y-102354147D01*
X157808228Y-102418297D01*
X157643816Y-102451000D01*
X157476184Y-102451000D01*
X157311772Y-102418297D01*
X157156900Y-102354147D01*
X157017519Y-102261015D01*
X156898985Y-102142481D01*
X156805853Y-102003100D01*
X156741703Y-101848228D01*
X156709000Y-101683816D01*
X156709000Y-101516184D01*
X156741703Y-101351772D01*
X156805853Y-101196900D01*
X156898985Y-101057519D01*
X157017519Y-100938985D01*
X157156900Y-100845853D01*
X157311772Y-100781703D01*
X157476184Y-100749000D01*
X157643816Y-100749000D01*
X157808228Y-100781703D01*
G37*
G36*
X147568228Y-100781703D02*
G01*
X147723100Y-100845853D01*
X147862481Y-100938985D01*
X147981015Y-101057519D01*
X148074147Y-101196900D01*
X148138297Y-101351772D01*
X148171000Y-101516184D01*
X148171000Y-101683816D01*
X148138297Y-101848228D01*
X148074147Y-102003100D01*
X147981015Y-102142481D01*
X147862481Y-102261015D01*
X147723100Y-102354147D01*
X147568228Y-102418297D01*
X147403816Y-102451000D01*
X147236184Y-102451000D01*
X147071772Y-102418297D01*
X146916900Y-102354147D01*
X146777519Y-102261015D01*
X146658985Y-102142481D01*
X146565853Y-102003100D01*
X146501703Y-101848228D01*
X146469000Y-101683816D01*
X146469000Y-101516184D01*
X146501703Y-101351772D01*
X146565853Y-101196900D01*
X146658985Y-101057519D01*
X146777519Y-100938985D01*
X146916900Y-100845853D01*
X147071772Y-100781703D01*
X147236184Y-100749000D01*
X147403816Y-100749000D01*
X147568228Y-100781703D01*
G37*
G36*
X155188228Y-100781703D02*
G01*
X155343100Y-100845853D01*
X155482481Y-100938985D01*
X155601015Y-101057519D01*
X155694147Y-101196900D01*
X155758297Y-101351772D01*
X155791000Y-101516184D01*
X155791000Y-101683816D01*
X155758297Y-101848228D01*
X155694147Y-102003100D01*
X155601015Y-102142481D01*
X155482481Y-102261015D01*
X155343100Y-102354147D01*
X155188228Y-102418297D01*
X155023816Y-102451000D01*
X154856184Y-102451000D01*
X154691772Y-102418297D01*
X154536900Y-102354147D01*
X154397519Y-102261015D01*
X154278985Y-102142481D01*
X154185853Y-102003100D01*
X154121703Y-101848228D01*
X154089000Y-101683816D01*
X154089000Y-101516184D01*
X154121703Y-101351772D01*
X154185853Y-101196900D01*
X154278985Y-101057519D01*
X154397519Y-100938985D01*
X154536900Y-100845853D01*
X154691772Y-100781703D01*
X154856184Y-100749000D01*
X155023816Y-100749000D01*
X155188228Y-100781703D01*
G37*
G36*
X183048228Y-100781703D02*
G01*
X183203100Y-100845853D01*
X183342481Y-100938985D01*
X183461015Y-101057519D01*
X183554147Y-101196900D01*
X183618297Y-101351772D01*
X183651000Y-101516184D01*
X183651000Y-101683816D01*
X183618297Y-101848228D01*
X183554147Y-102003100D01*
X183461015Y-102142481D01*
X183342481Y-102261015D01*
X183203100Y-102354147D01*
X183048228Y-102418297D01*
X182883816Y-102451000D01*
X182716184Y-102451000D01*
X182551772Y-102418297D01*
X182396900Y-102354147D01*
X182257519Y-102261015D01*
X182138985Y-102142481D01*
X182045853Y-102003100D01*
X181981703Y-101848228D01*
X181949000Y-101683816D01*
X181949000Y-101516184D01*
X181981703Y-101351772D01*
X182045853Y-101196900D01*
X182138985Y-101057519D01*
X182257519Y-100938985D01*
X182396900Y-100845853D01*
X182551772Y-100781703D01*
X182716184Y-100749000D01*
X182883816Y-100749000D01*
X183048228Y-100781703D01*
G37*
G36*
X178048228Y-100781703D02*
G01*
X178203100Y-100845853D01*
X178342481Y-100938985D01*
X178461015Y-101057519D01*
X178554147Y-101196900D01*
X178618297Y-101351772D01*
X178651000Y-101516184D01*
X178651000Y-101683816D01*
X178618297Y-101848228D01*
X178554147Y-102003100D01*
X178461015Y-102142481D01*
X178342481Y-102261015D01*
X178203100Y-102354147D01*
X178048228Y-102418297D01*
X177883816Y-102451000D01*
X177716184Y-102451000D01*
X177551772Y-102418297D01*
X177396900Y-102354147D01*
X177257519Y-102261015D01*
X177138985Y-102142481D01*
X177045853Y-102003100D01*
X176981703Y-101848228D01*
X176949000Y-101683816D01*
X176949000Y-101516184D01*
X176981703Y-101351772D01*
X177045853Y-101196900D01*
X177138985Y-101057519D01*
X177257519Y-100938985D01*
X177396900Y-100845853D01*
X177551772Y-100781703D01*
X177716184Y-100749000D01*
X177883816Y-100749000D01*
X178048228Y-100781703D01*
G37*
G36*
X162808228Y-100781703D02*
G01*
X162963100Y-100845853D01*
X163102481Y-100938985D01*
X163221015Y-101057519D01*
X163314147Y-101196900D01*
X163378297Y-101351772D01*
X163411000Y-101516184D01*
X163411000Y-101683816D01*
X163378297Y-101848228D01*
X163314147Y-102003100D01*
X163221015Y-102142481D01*
X163102481Y-102261015D01*
X162963100Y-102354147D01*
X162808228Y-102418297D01*
X162643816Y-102451000D01*
X162476184Y-102451000D01*
X162311772Y-102418297D01*
X162156900Y-102354147D01*
X162017519Y-102261015D01*
X161898985Y-102142481D01*
X161805853Y-102003100D01*
X161741703Y-101848228D01*
X161709000Y-101683816D01*
X161709000Y-101516184D01*
X161741703Y-101351772D01*
X161805853Y-101196900D01*
X161898985Y-101057519D01*
X162017519Y-100938985D01*
X162156900Y-100845853D01*
X162311772Y-100781703D01*
X162476184Y-100749000D01*
X162643816Y-100749000D01*
X162808228Y-100781703D01*
G37*
G36*
X168073642Y-100829781D02*
G01*
X168219414Y-100890162D01*
X168219416Y-100890163D01*
X168350608Y-100977822D01*
X168462178Y-101089392D01*
X168534012Y-101196900D01*
X168549838Y-101220586D01*
X168610219Y-101366358D01*
X168641000Y-101521107D01*
X168641000Y-101678893D01*
X168610219Y-101833642D01*
X168549838Y-101979414D01*
X168549837Y-101979416D01*
X168462178Y-102110608D01*
X168350608Y-102222178D01*
X168219416Y-102309837D01*
X168219415Y-102309838D01*
X168219414Y-102309838D01*
X168073642Y-102370219D01*
X167918893Y-102401000D01*
X167761107Y-102401000D01*
X167606358Y-102370219D01*
X167460586Y-102309838D01*
X167460585Y-102309838D01*
X167460584Y-102309837D01*
X167329392Y-102222178D01*
X167217822Y-102110608D01*
X167130163Y-101979416D01*
X167130162Y-101979414D01*
X167069781Y-101833642D01*
X167039000Y-101678893D01*
X167039000Y-101521107D01*
X167069781Y-101366358D01*
X167130162Y-101220586D01*
X167145988Y-101196900D01*
X167217822Y-101089392D01*
X167329392Y-100977822D01*
X167460584Y-100890163D01*
X167460586Y-100890162D01*
X167606358Y-100829781D01*
X167761107Y-100799000D01*
X167918893Y-100799000D01*
X168073642Y-100829781D01*
G37*
G36*
X172953642Y-100829781D02*
G01*
X173099414Y-100890162D01*
X173099416Y-100890163D01*
X173230608Y-100977822D01*
X173342178Y-101089392D01*
X173414012Y-101196900D01*
X173429838Y-101220586D01*
X173490219Y-101366358D01*
X173521000Y-101521107D01*
X173521000Y-101678893D01*
X173490219Y-101833642D01*
X173429838Y-101979414D01*
X173429837Y-101979416D01*
X173342178Y-102110608D01*
X173230608Y-102222178D01*
X173099416Y-102309837D01*
X173099415Y-102309838D01*
X173099414Y-102309838D01*
X172953642Y-102370219D01*
X172798893Y-102401000D01*
X172641107Y-102401000D01*
X172486358Y-102370219D01*
X172340586Y-102309838D01*
X172340585Y-102309838D01*
X172340584Y-102309837D01*
X172209392Y-102222178D01*
X172097822Y-102110608D01*
X172010163Y-101979416D01*
X172010162Y-101979414D01*
X171949781Y-101833642D01*
X171919000Y-101678893D01*
X171919000Y-101521107D01*
X171949781Y-101366358D01*
X172010162Y-101220586D01*
X172025988Y-101196900D01*
X172097822Y-101089392D01*
X172209392Y-100977822D01*
X172340584Y-100890163D01*
X172340586Y-100890162D01*
X172486358Y-100829781D01*
X172641107Y-100799000D01*
X172798893Y-100799000D01*
X172953642Y-100829781D01*
G37*
G36*
X143091000Y-99911000D02*
G01*
X141389000Y-99911000D01*
X141389000Y-98209000D01*
X143091000Y-98209000D01*
X143091000Y-99911000D01*
G37*
G36*
X195161000Y-99911000D02*
G01*
X193459000Y-99911000D01*
X193459000Y-98209000D01*
X195161000Y-98209000D01*
X195161000Y-99911000D01*
G37*
G36*
X134868228Y-98241703D02*
G01*
X135023100Y-98305853D01*
X135162481Y-98398985D01*
X135281015Y-98517519D01*
X135374147Y-98656900D01*
X135438297Y-98811772D01*
X135471000Y-98976184D01*
X135471000Y-99143816D01*
X135438297Y-99308228D01*
X135374147Y-99463100D01*
X135281015Y-99602481D01*
X135162481Y-99721015D01*
X135023100Y-99814147D01*
X134868228Y-99878297D01*
X134703816Y-99911000D01*
X134536184Y-99911000D01*
X134371772Y-99878297D01*
X134216900Y-99814147D01*
X134077519Y-99721015D01*
X133958985Y-99602481D01*
X133865853Y-99463100D01*
X133801703Y-99308228D01*
X133769000Y-99143816D01*
X133769000Y-98976184D01*
X133801703Y-98811772D01*
X133865853Y-98656900D01*
X133958985Y-98517519D01*
X134077519Y-98398985D01*
X134216900Y-98305853D01*
X134371772Y-98241703D01*
X134536184Y-98209000D01*
X134703816Y-98209000D01*
X134868228Y-98241703D01*
G37*
G36*
X191394928Y-95561764D02*
G01*
X191416009Y-95568160D01*
X191435445Y-95578548D01*
X191452476Y-95592524D01*
X191466452Y-95609555D01*
X191476840Y-95628991D01*
X191483236Y-95650072D01*
X191486000Y-95678140D01*
X191486000Y-97491860D01*
X191483236Y-97519928D01*
X191476840Y-97541009D01*
X191466452Y-97560445D01*
X191452476Y-97577476D01*
X191435445Y-97591452D01*
X191416009Y-97601840D01*
X191394928Y-97608236D01*
X191366860Y-97611000D01*
X190903140Y-97611000D01*
X190875072Y-97608236D01*
X190853991Y-97601840D01*
X190834555Y-97591452D01*
X190817524Y-97577476D01*
X190803548Y-97560445D01*
X190793160Y-97541009D01*
X190786764Y-97519928D01*
X190784000Y-97491860D01*
X190784000Y-95678140D01*
X190786764Y-95650072D01*
X190793160Y-95628991D01*
X190803548Y-95609555D01*
X190817524Y-95592524D01*
X190834555Y-95578548D01*
X190853991Y-95568160D01*
X190875072Y-95561764D01*
X190903140Y-95559000D01*
X191366860Y-95559000D01*
X191394928Y-95561764D01*
G37*
G36*
X188854928Y-95561764D02*
G01*
X188876009Y-95568160D01*
X188895445Y-95578548D01*
X188912476Y-95592524D01*
X188926452Y-95609555D01*
X188936840Y-95628991D01*
X188943236Y-95650072D01*
X188946000Y-95678140D01*
X188946000Y-97491860D01*
X188943236Y-97519928D01*
X188936840Y-97541009D01*
X188926452Y-97560445D01*
X188912476Y-97577476D01*
X188895445Y-97591452D01*
X188876009Y-97601840D01*
X188854928Y-97608236D01*
X188826860Y-97611000D01*
X188363140Y-97611000D01*
X188335072Y-97608236D01*
X188313991Y-97601840D01*
X188294555Y-97591452D01*
X188277524Y-97577476D01*
X188263548Y-97560445D01*
X188253160Y-97541009D01*
X188246764Y-97519928D01*
X188244000Y-97491860D01*
X188244000Y-95678140D01*
X188246764Y-95650072D01*
X188253160Y-95628991D01*
X188263548Y-95609555D01*
X188277524Y-95592524D01*
X188294555Y-95578548D01*
X188313991Y-95568160D01*
X188335072Y-95561764D01*
X188363140Y-95559000D01*
X188826860Y-95559000D01*
X188854928Y-95561764D01*
G37*
G36*
X190124928Y-95561764D02*
G01*
X190146009Y-95568160D01*
X190165445Y-95578548D01*
X190182476Y-95592524D01*
X190196452Y-95609555D01*
X190206840Y-95628991D01*
X190213236Y-95650072D01*
X190216000Y-95678140D01*
X190216000Y-97491860D01*
X190213236Y-97519928D01*
X190206840Y-97541009D01*
X190196452Y-97560445D01*
X190182476Y-97577476D01*
X190165445Y-97591452D01*
X190146009Y-97601840D01*
X190124928Y-97608236D01*
X190096860Y-97611000D01*
X189633140Y-97611000D01*
X189605072Y-97608236D01*
X189583991Y-97601840D01*
X189564555Y-97591452D01*
X189547524Y-97577476D01*
X189533548Y-97560445D01*
X189523160Y-97541009D01*
X189516764Y-97519928D01*
X189514000Y-97491860D01*
X189514000Y-95678140D01*
X189516764Y-95650072D01*
X189523160Y-95628991D01*
X189533548Y-95609555D01*
X189547524Y-95592524D01*
X189564555Y-95578548D01*
X189583991Y-95568160D01*
X189605072Y-95561764D01*
X189633140Y-95559000D01*
X190096860Y-95559000D01*
X190124928Y-95561764D01*
G37*
G36*
X187584928Y-95561764D02*
G01*
X187606009Y-95568160D01*
X187625445Y-95578548D01*
X187642476Y-95592524D01*
X187656452Y-95609555D01*
X187666840Y-95628991D01*
X187673236Y-95650072D01*
X187676000Y-95678140D01*
X187676000Y-97491860D01*
X187673236Y-97519928D01*
X187666840Y-97541009D01*
X187656452Y-97560445D01*
X187642476Y-97577476D01*
X187625445Y-97591452D01*
X187606009Y-97601840D01*
X187584928Y-97608236D01*
X187556860Y-97611000D01*
X187093140Y-97611000D01*
X187065072Y-97608236D01*
X187043991Y-97601840D01*
X187024555Y-97591452D01*
X187007524Y-97577476D01*
X186993548Y-97560445D01*
X186983160Y-97541009D01*
X186976764Y-97519928D01*
X186974000Y-97491860D01*
X186974000Y-95678140D01*
X186976764Y-95650072D01*
X186983160Y-95628991D01*
X186993548Y-95609555D01*
X187007524Y-95592524D01*
X187024555Y-95578548D01*
X187043991Y-95568160D01*
X187065072Y-95561764D01*
X187093140Y-95559000D01*
X187556860Y-95559000D01*
X187584928Y-95561764D01*
G37*
G36*
X194558228Y-95741703D02*
G01*
X194713100Y-95805853D01*
X194852481Y-95898985D01*
X194971015Y-96017519D01*
X195064147Y-96156900D01*
X195128297Y-96311772D01*
X195161000Y-96476184D01*
X195161000Y-96643816D01*
X195128297Y-96808228D01*
X195064147Y-96963100D01*
X194971015Y-97102481D01*
X194852481Y-97221015D01*
X194713100Y-97314147D01*
X194558228Y-97378297D01*
X194393816Y-97411000D01*
X194226184Y-97411000D01*
X194061772Y-97378297D01*
X193906900Y-97314147D01*
X193767519Y-97221015D01*
X193648985Y-97102481D01*
X193555853Y-96963100D01*
X193491703Y-96808228D01*
X193459000Y-96643816D01*
X193459000Y-96476184D01*
X193491703Y-96311772D01*
X193555853Y-96156900D01*
X193648985Y-96017519D01*
X193767519Y-95898985D01*
X193906900Y-95805853D01*
X194061772Y-95741703D01*
X194226184Y-95709000D01*
X194393816Y-95709000D01*
X194558228Y-95741703D01*
G37*
G36*
X164078228Y-95701703D02*
G01*
X164233100Y-95765853D01*
X164372481Y-95858985D01*
X164491015Y-95977519D01*
X164584147Y-96116900D01*
X164648297Y-96271772D01*
X164681000Y-96436184D01*
X164681000Y-96603816D01*
X164648297Y-96768228D01*
X164584147Y-96923100D01*
X164491015Y-97062481D01*
X164372481Y-97181015D01*
X164233100Y-97274147D01*
X164078228Y-97338297D01*
X163913816Y-97371000D01*
X163746184Y-97371000D01*
X163581772Y-97338297D01*
X163426900Y-97274147D01*
X163287519Y-97181015D01*
X163168985Y-97062481D01*
X163075853Y-96923100D01*
X163011703Y-96768228D01*
X162979000Y-96603816D01*
X162979000Y-96436184D01*
X163011703Y-96271772D01*
X163075853Y-96116900D01*
X163168985Y-95977519D01*
X163287519Y-95858985D01*
X163426900Y-95765853D01*
X163581772Y-95701703D01*
X163746184Y-95669000D01*
X163913816Y-95669000D01*
X164078228Y-95701703D01*
G37*
G36*
X171698228Y-95701703D02*
G01*
X171853100Y-95765853D01*
X171992481Y-95858985D01*
X172111015Y-95977519D01*
X172204147Y-96116900D01*
X172268297Y-96271772D01*
X172301000Y-96436184D01*
X172301000Y-96603816D01*
X172268297Y-96768228D01*
X172204147Y-96923100D01*
X172111015Y-97062481D01*
X171992481Y-97181015D01*
X171853100Y-97274147D01*
X171698228Y-97338297D01*
X171533816Y-97371000D01*
X171366184Y-97371000D01*
X171201772Y-97338297D01*
X171046900Y-97274147D01*
X170907519Y-97181015D01*
X170788985Y-97062481D01*
X170695853Y-96923100D01*
X170631703Y-96768228D01*
X170599000Y-96603816D01*
X170599000Y-96436184D01*
X170631703Y-96271772D01*
X170695853Y-96116900D01*
X170788985Y-95977519D01*
X170907519Y-95858985D01*
X171046900Y-95765853D01*
X171201772Y-95701703D01*
X171366184Y-95669000D01*
X171533816Y-95669000D01*
X171698228Y-95701703D01*
G37*
G36*
X174238228Y-95701703D02*
G01*
X174393100Y-95765853D01*
X174532481Y-95858985D01*
X174651015Y-95977519D01*
X174744147Y-96116900D01*
X174808297Y-96271772D01*
X174841000Y-96436184D01*
X174841000Y-96603816D01*
X174808297Y-96768228D01*
X174744147Y-96923100D01*
X174651015Y-97062481D01*
X174532481Y-97181015D01*
X174393100Y-97274147D01*
X174238228Y-97338297D01*
X174073816Y-97371000D01*
X173906184Y-97371000D01*
X173741772Y-97338297D01*
X173586900Y-97274147D01*
X173447519Y-97181015D01*
X173328985Y-97062481D01*
X173235853Y-96923100D01*
X173171703Y-96768228D01*
X173139000Y-96603816D01*
X173139000Y-96436184D01*
X173171703Y-96271772D01*
X173235853Y-96116900D01*
X173328985Y-95977519D01*
X173447519Y-95858985D01*
X173586900Y-95765853D01*
X173741772Y-95701703D01*
X173906184Y-95669000D01*
X174073816Y-95669000D01*
X174238228Y-95701703D01*
G37*
G36*
X176778228Y-95701703D02*
G01*
X176933100Y-95765853D01*
X177072481Y-95858985D01*
X177191015Y-95977519D01*
X177284147Y-96116900D01*
X177348297Y-96271772D01*
X177381000Y-96436184D01*
X177381000Y-96603816D01*
X177348297Y-96768228D01*
X177284147Y-96923100D01*
X177191015Y-97062481D01*
X177072481Y-97181015D01*
X176933100Y-97274147D01*
X176778228Y-97338297D01*
X176613816Y-97371000D01*
X176446184Y-97371000D01*
X176281772Y-97338297D01*
X176126900Y-97274147D01*
X175987519Y-97181015D01*
X175868985Y-97062481D01*
X175775853Y-96923100D01*
X175711703Y-96768228D01*
X175679000Y-96603816D01*
X175679000Y-96436184D01*
X175711703Y-96271772D01*
X175775853Y-96116900D01*
X175868985Y-95977519D01*
X175987519Y-95858985D01*
X176126900Y-95765853D01*
X176281772Y-95701703D01*
X176446184Y-95669000D01*
X176613816Y-95669000D01*
X176778228Y-95701703D01*
G37*
G36*
X166618228Y-95701703D02*
G01*
X166773100Y-95765853D01*
X166912481Y-95858985D01*
X167031015Y-95977519D01*
X167124147Y-96116900D01*
X167188297Y-96271772D01*
X167221000Y-96436184D01*
X167221000Y-96603816D01*
X167188297Y-96768228D01*
X167124147Y-96923100D01*
X167031015Y-97062481D01*
X166912481Y-97181015D01*
X166773100Y-97274147D01*
X166618228Y-97338297D01*
X166453816Y-97371000D01*
X166286184Y-97371000D01*
X166121772Y-97338297D01*
X165966900Y-97274147D01*
X165827519Y-97181015D01*
X165708985Y-97062481D01*
X165615853Y-96923100D01*
X165551703Y-96768228D01*
X165519000Y-96603816D01*
X165519000Y-96436184D01*
X165551703Y-96271772D01*
X165615853Y-96116900D01*
X165708985Y-95977519D01*
X165827519Y-95858985D01*
X165966900Y-95765853D01*
X166121772Y-95701703D01*
X166286184Y-95669000D01*
X166453816Y-95669000D01*
X166618228Y-95701703D01*
G37*
G36*
X169158228Y-95701703D02*
G01*
X169313100Y-95765853D01*
X169452481Y-95858985D01*
X169571015Y-95977519D01*
X169664147Y-96116900D01*
X169728297Y-96271772D01*
X169761000Y-96436184D01*
X169761000Y-96603816D01*
X169728297Y-96768228D01*
X169664147Y-96923100D01*
X169571015Y-97062481D01*
X169452481Y-97181015D01*
X169313100Y-97274147D01*
X169158228Y-97338297D01*
X168993816Y-97371000D01*
X168826184Y-97371000D01*
X168661772Y-97338297D01*
X168506900Y-97274147D01*
X168367519Y-97181015D01*
X168248985Y-97062481D01*
X168155853Y-96923100D01*
X168091703Y-96768228D01*
X168059000Y-96603816D01*
X168059000Y-96436184D01*
X168091703Y-96271772D01*
X168155853Y-96116900D01*
X168248985Y-95977519D01*
X168367519Y-95858985D01*
X168506900Y-95765853D01*
X168661772Y-95701703D01*
X168826184Y-95669000D01*
X168993816Y-95669000D01*
X169158228Y-95701703D01*
G37*
G36*
X161538228Y-95701703D02*
G01*
X161693100Y-95765853D01*
X161832481Y-95858985D01*
X161951015Y-95977519D01*
X162044147Y-96116900D01*
X162108297Y-96271772D01*
X162141000Y-96436184D01*
X162141000Y-96603816D01*
X162108297Y-96768228D01*
X162044147Y-96923100D01*
X161951015Y-97062481D01*
X161832481Y-97181015D01*
X161693100Y-97274147D01*
X161538228Y-97338297D01*
X161373816Y-97371000D01*
X161206184Y-97371000D01*
X161041772Y-97338297D01*
X160886900Y-97274147D01*
X160747519Y-97181015D01*
X160628985Y-97062481D01*
X160535853Y-96923100D01*
X160471703Y-96768228D01*
X160439000Y-96603816D01*
X160439000Y-96436184D01*
X160471703Y-96271772D01*
X160535853Y-96116900D01*
X160628985Y-95977519D01*
X160747519Y-95858985D01*
X160886900Y-95765853D01*
X161041772Y-95701703D01*
X161206184Y-95669000D01*
X161373816Y-95669000D01*
X161538228Y-95701703D01*
G37*
G36*
X158998228Y-95701703D02*
G01*
X159153100Y-95765853D01*
X159292481Y-95858985D01*
X159411015Y-95977519D01*
X159504147Y-96116900D01*
X159568297Y-96271772D01*
X159601000Y-96436184D01*
X159601000Y-96603816D01*
X159568297Y-96768228D01*
X159504147Y-96923100D01*
X159411015Y-97062481D01*
X159292481Y-97181015D01*
X159153100Y-97274147D01*
X158998228Y-97338297D01*
X158833816Y-97371000D01*
X158666184Y-97371000D01*
X158501772Y-97338297D01*
X158346900Y-97274147D01*
X158207519Y-97181015D01*
X158088985Y-97062481D01*
X157995853Y-96923100D01*
X157931703Y-96768228D01*
X157899000Y-96603816D01*
X157899000Y-96436184D01*
X157931703Y-96271772D01*
X157995853Y-96116900D01*
X158088985Y-95977519D01*
X158207519Y-95858985D01*
X158346900Y-95765853D01*
X158501772Y-95701703D01*
X158666184Y-95669000D01*
X158833816Y-95669000D01*
X158998228Y-95701703D01*
G37*
G36*
X148838228Y-95701703D02*
G01*
X148993100Y-95765853D01*
X149132481Y-95858985D01*
X149251015Y-95977519D01*
X149344147Y-96116900D01*
X149408297Y-96271772D01*
X149441000Y-96436184D01*
X149441000Y-96603816D01*
X149408297Y-96768228D01*
X149344147Y-96923100D01*
X149251015Y-97062481D01*
X149132481Y-97181015D01*
X148993100Y-97274147D01*
X148838228Y-97338297D01*
X148673816Y-97371000D01*
X148506184Y-97371000D01*
X148341772Y-97338297D01*
X148186900Y-97274147D01*
X148047519Y-97181015D01*
X147928985Y-97062481D01*
X147835853Y-96923100D01*
X147771703Y-96768228D01*
X147739000Y-96603816D01*
X147739000Y-96436184D01*
X147771703Y-96271772D01*
X147835853Y-96116900D01*
X147928985Y-95977519D01*
X148047519Y-95858985D01*
X148186900Y-95765853D01*
X148341772Y-95701703D01*
X148506184Y-95669000D01*
X148673816Y-95669000D01*
X148838228Y-95701703D01*
G37*
G36*
X179318228Y-95701703D02*
G01*
X179473100Y-95765853D01*
X179612481Y-95858985D01*
X179731015Y-95977519D01*
X179824147Y-96116900D01*
X179888297Y-96271772D01*
X179921000Y-96436184D01*
X179921000Y-96603816D01*
X179888297Y-96768228D01*
X179824147Y-96923100D01*
X179731015Y-97062481D01*
X179612481Y-97181015D01*
X179473100Y-97274147D01*
X179318228Y-97338297D01*
X179153816Y-97371000D01*
X178986184Y-97371000D01*
X178821772Y-97338297D01*
X178666900Y-97274147D01*
X178527519Y-97181015D01*
X178408985Y-97062481D01*
X178315853Y-96923100D01*
X178251703Y-96768228D01*
X178219000Y-96603816D01*
X178219000Y-96436184D01*
X178251703Y-96271772D01*
X178315853Y-96116900D01*
X178408985Y-95977519D01*
X178527519Y-95858985D01*
X178666900Y-95765853D01*
X178821772Y-95701703D01*
X178986184Y-95669000D01*
X179153816Y-95669000D01*
X179318228Y-95701703D01*
G37*
G36*
X153918228Y-95701703D02*
G01*
X154073100Y-95765853D01*
X154212481Y-95858985D01*
X154331015Y-95977519D01*
X154424147Y-96116900D01*
X154488297Y-96271772D01*
X154521000Y-96436184D01*
X154521000Y-96603816D01*
X154488297Y-96768228D01*
X154424147Y-96923100D01*
X154331015Y-97062481D01*
X154212481Y-97181015D01*
X154073100Y-97274147D01*
X153918228Y-97338297D01*
X153753816Y-97371000D01*
X153586184Y-97371000D01*
X153421772Y-97338297D01*
X153266900Y-97274147D01*
X153127519Y-97181015D01*
X153008985Y-97062481D01*
X152915853Y-96923100D01*
X152851703Y-96768228D01*
X152819000Y-96603816D01*
X152819000Y-96436184D01*
X152851703Y-96271772D01*
X152915853Y-96116900D01*
X153008985Y-95977519D01*
X153127519Y-95858985D01*
X153266900Y-95765853D01*
X153421772Y-95701703D01*
X153586184Y-95669000D01*
X153753816Y-95669000D01*
X153918228Y-95701703D01*
G37*
G36*
X156458228Y-95701703D02*
G01*
X156613100Y-95765853D01*
X156752481Y-95858985D01*
X156871015Y-95977519D01*
X156964147Y-96116900D01*
X157028297Y-96271772D01*
X157061000Y-96436184D01*
X157061000Y-96603816D01*
X157028297Y-96768228D01*
X156964147Y-96923100D01*
X156871015Y-97062481D01*
X156752481Y-97181015D01*
X156613100Y-97274147D01*
X156458228Y-97338297D01*
X156293816Y-97371000D01*
X156126184Y-97371000D01*
X155961772Y-97338297D01*
X155806900Y-97274147D01*
X155667519Y-97181015D01*
X155548985Y-97062481D01*
X155455853Y-96923100D01*
X155391703Y-96768228D01*
X155359000Y-96603816D01*
X155359000Y-96436184D01*
X155391703Y-96271772D01*
X155455853Y-96116900D01*
X155548985Y-95977519D01*
X155667519Y-95858985D01*
X155806900Y-95765853D01*
X155961772Y-95701703D01*
X156126184Y-95669000D01*
X156293816Y-95669000D01*
X156458228Y-95701703D01*
G37*
G36*
X134868228Y-95701703D02*
G01*
X135023100Y-95765853D01*
X135162481Y-95858985D01*
X135281015Y-95977519D01*
X135374147Y-96116900D01*
X135438297Y-96271772D01*
X135471000Y-96436184D01*
X135471000Y-96603816D01*
X135438297Y-96768228D01*
X135374147Y-96923100D01*
X135281015Y-97062481D01*
X135162481Y-97181015D01*
X135023100Y-97274147D01*
X134868228Y-97338297D01*
X134703816Y-97371000D01*
X134536184Y-97371000D01*
X134371772Y-97338297D01*
X134216900Y-97274147D01*
X134077519Y-97181015D01*
X133958985Y-97062481D01*
X133865853Y-96923100D01*
X133801703Y-96768228D01*
X133769000Y-96603816D01*
X133769000Y-96436184D01*
X133801703Y-96271772D01*
X133865853Y-96116900D01*
X133958985Y-95977519D01*
X134077519Y-95858985D01*
X134216900Y-95765853D01*
X134371772Y-95701703D01*
X134536184Y-95669000D01*
X134703816Y-95669000D01*
X134868228Y-95701703D01*
G37*
G36*
X142488228Y-95701703D02*
G01*
X142643100Y-95765853D01*
X142782481Y-95858985D01*
X142901015Y-95977519D01*
X142994147Y-96116900D01*
X143058297Y-96271772D01*
X143091000Y-96436184D01*
X143091000Y-96603816D01*
X143058297Y-96768228D01*
X142994147Y-96923100D01*
X142901015Y-97062481D01*
X142782481Y-97181015D01*
X142643100Y-97274147D01*
X142488228Y-97338297D01*
X142323816Y-97371000D01*
X142156184Y-97371000D01*
X141991772Y-97338297D01*
X141836900Y-97274147D01*
X141697519Y-97181015D01*
X141578985Y-97062481D01*
X141485853Y-96923100D01*
X141421703Y-96768228D01*
X141389000Y-96603816D01*
X141389000Y-96436184D01*
X141421703Y-96271772D01*
X141485853Y-96116900D01*
X141578985Y-95977519D01*
X141697519Y-95858985D01*
X141836900Y-95765853D01*
X141991772Y-95701703D01*
X142156184Y-95669000D01*
X142323816Y-95669000D01*
X142488228Y-95701703D01*
G37*
G36*
X146901000Y-97371000D02*
G01*
X145199000Y-97371000D01*
X145199000Y-95669000D01*
X146901000Y-95669000D01*
X146901000Y-97371000D01*
G37*
G36*
X151378228Y-95701703D02*
G01*
X151533100Y-95765853D01*
X151672481Y-95858985D01*
X151791015Y-95977519D01*
X151884147Y-96116900D01*
X151948297Y-96271772D01*
X151981000Y-96436184D01*
X151981000Y-96603816D01*
X151948297Y-96768228D01*
X151884147Y-96923100D01*
X151791015Y-97062481D01*
X151672481Y-97181015D01*
X151533100Y-97274147D01*
X151378228Y-97338297D01*
X151213816Y-97371000D01*
X151046184Y-97371000D01*
X150881772Y-97338297D01*
X150726900Y-97274147D01*
X150587519Y-97181015D01*
X150468985Y-97062481D01*
X150375853Y-96923100D01*
X150311703Y-96768228D01*
X150279000Y-96603816D01*
X150279000Y-96436184D01*
X150311703Y-96271772D01*
X150375853Y-96116900D01*
X150468985Y-95977519D01*
X150587519Y-95858985D01*
X150726900Y-95765853D01*
X150881772Y-95701703D01*
X151046184Y-95669000D01*
X151213816Y-95669000D01*
X151378228Y-95701703D01*
G37*
G36*
X194558228Y-93741703D02*
G01*
X194713100Y-93805853D01*
X194852481Y-93898985D01*
X194971015Y-94017519D01*
X195064147Y-94156900D01*
X195128297Y-94311772D01*
X195161000Y-94476184D01*
X195161000Y-94643816D01*
X195128297Y-94808228D01*
X195064147Y-94963100D01*
X194971015Y-95102481D01*
X194852481Y-95221015D01*
X194713100Y-95314147D01*
X194558228Y-95378297D01*
X194393816Y-95411000D01*
X194226184Y-95411000D01*
X194061772Y-95378297D01*
X193906900Y-95314147D01*
X193767519Y-95221015D01*
X193648985Y-95102481D01*
X193555853Y-94963100D01*
X193491703Y-94808228D01*
X193459000Y-94643816D01*
X193459000Y-94476184D01*
X193491703Y-94311772D01*
X193555853Y-94156900D01*
X193648985Y-94017519D01*
X193767519Y-93898985D01*
X193906900Y-93805853D01*
X194061772Y-93741703D01*
X194226184Y-93709000D01*
X194393816Y-93709000D01*
X194558228Y-93741703D01*
G37*
G36*
X142488228Y-93161703D02*
G01*
X142643100Y-93225853D01*
X142782481Y-93318985D01*
X142901015Y-93437519D01*
X142994147Y-93576900D01*
X143058297Y-93731772D01*
X143091000Y-93896184D01*
X143091000Y-94063816D01*
X143058297Y-94228228D01*
X142994147Y-94383100D01*
X142901015Y-94522481D01*
X142782481Y-94641015D01*
X142643100Y-94734147D01*
X142488228Y-94798297D01*
X142323816Y-94831000D01*
X142156184Y-94831000D01*
X141991772Y-94798297D01*
X141836900Y-94734147D01*
X141697519Y-94641015D01*
X141578985Y-94522481D01*
X141485853Y-94383100D01*
X141421703Y-94228228D01*
X141389000Y-94063816D01*
X141389000Y-93896184D01*
X141421703Y-93731772D01*
X141485853Y-93576900D01*
X141578985Y-93437519D01*
X141697519Y-93318985D01*
X141836900Y-93225853D01*
X141991772Y-93161703D01*
X142156184Y-93129000D01*
X142323816Y-93129000D01*
X142488228Y-93161703D01*
G37*
G36*
X134868228Y-93161703D02*
G01*
X135023100Y-93225853D01*
X135162481Y-93318985D01*
X135281015Y-93437519D01*
X135374147Y-93576900D01*
X135438297Y-93731772D01*
X135471000Y-93896184D01*
X135471000Y-94063816D01*
X135438297Y-94228228D01*
X135374147Y-94383100D01*
X135281015Y-94522481D01*
X135162481Y-94641015D01*
X135023100Y-94734147D01*
X134868228Y-94798297D01*
X134703816Y-94831000D01*
X134536184Y-94831000D01*
X134371772Y-94798297D01*
X134216900Y-94734147D01*
X134077519Y-94641015D01*
X133958985Y-94522481D01*
X133865853Y-94383100D01*
X133801703Y-94228228D01*
X133769000Y-94063816D01*
X133769000Y-93896184D01*
X133801703Y-93731772D01*
X133865853Y-93576900D01*
X133958985Y-93437519D01*
X134077519Y-93318985D01*
X134216900Y-93225853D01*
X134371772Y-93161703D01*
X134536184Y-93129000D01*
X134703816Y-93129000D01*
X134868228Y-93161703D01*
G37*
G36*
X189478228Y-91891703D02*
G01*
X189633100Y-91955853D01*
X189772481Y-92048985D01*
X189891015Y-92167519D01*
X189984147Y-92306900D01*
X190048297Y-92461772D01*
X190081000Y-92626184D01*
X190081000Y-92793816D01*
X190048297Y-92958228D01*
X189984147Y-93113100D01*
X189891015Y-93252481D01*
X189772481Y-93371015D01*
X189633100Y-93464147D01*
X189478228Y-93528297D01*
X189313816Y-93561000D01*
X189146184Y-93561000D01*
X188981772Y-93528297D01*
X188826900Y-93464147D01*
X188687519Y-93371015D01*
X188568985Y-93252481D01*
X188475853Y-93113100D01*
X188411703Y-92958228D01*
X188379000Y-92793816D01*
X188379000Y-92626184D01*
X188411703Y-92461772D01*
X188475853Y-92306900D01*
X188568985Y-92167519D01*
X188687519Y-92048985D01*
X188826900Y-91955853D01*
X188981772Y-91891703D01*
X189146184Y-91859000D01*
X189313816Y-91859000D01*
X189478228Y-91891703D01*
G37*
G36*
X184398228Y-91811703D02*
G01*
X184553100Y-91875853D01*
X184692481Y-91968985D01*
X184811015Y-92087519D01*
X184904147Y-92226900D01*
X184968297Y-92381772D01*
X185001000Y-92546184D01*
X185001000Y-92713816D01*
X184968297Y-92878228D01*
X184904147Y-93033100D01*
X184811015Y-93172481D01*
X184692481Y-93291015D01*
X184553100Y-93384147D01*
X184398228Y-93448297D01*
X184233816Y-93481000D01*
X184066184Y-93481000D01*
X183901772Y-93448297D01*
X183746900Y-93384147D01*
X183607519Y-93291015D01*
X183488985Y-93172481D01*
X183395853Y-93033100D01*
X183331703Y-92878228D01*
X183299000Y-92713816D01*
X183299000Y-92546184D01*
X183331703Y-92381772D01*
X183395853Y-92226900D01*
X183488985Y-92087519D01*
X183607519Y-91968985D01*
X183746900Y-91875853D01*
X183901772Y-91811703D01*
X184066184Y-91779000D01*
X184233816Y-91779000D01*
X184398228Y-91811703D01*
G37*
G36*
X194558228Y-91241703D02*
G01*
X194713100Y-91305853D01*
X194852481Y-91398985D01*
X194971015Y-91517519D01*
X195064147Y-91656900D01*
X195128297Y-91811772D01*
X195161000Y-91976184D01*
X195161000Y-92143816D01*
X195128297Y-92308228D01*
X195064147Y-92463100D01*
X194971015Y-92602481D01*
X194852481Y-92721015D01*
X194713100Y-92814147D01*
X194558228Y-92878297D01*
X194393816Y-92911000D01*
X194226184Y-92911000D01*
X194061772Y-92878297D01*
X193906900Y-92814147D01*
X193767519Y-92721015D01*
X193648985Y-92602481D01*
X193555853Y-92463100D01*
X193491703Y-92308228D01*
X193459000Y-92143816D01*
X193459000Y-91976184D01*
X193491703Y-91811772D01*
X193555853Y-91656900D01*
X193648985Y-91517519D01*
X193767519Y-91398985D01*
X193906900Y-91305853D01*
X194061772Y-91241703D01*
X194226184Y-91209000D01*
X194393816Y-91209000D01*
X194558228Y-91241703D01*
G37*
G36*
X142488228Y-90621703D02*
G01*
X142643100Y-90685853D01*
X142782481Y-90778985D01*
X142901015Y-90897519D01*
X142994147Y-91036900D01*
X143058297Y-91191772D01*
X143091000Y-91356184D01*
X143091000Y-91523816D01*
X143058297Y-91688228D01*
X142994147Y-91843100D01*
X142901015Y-91982481D01*
X142782481Y-92101015D01*
X142643100Y-92194147D01*
X142488228Y-92258297D01*
X142323816Y-92291000D01*
X142156184Y-92291000D01*
X141991772Y-92258297D01*
X141836900Y-92194147D01*
X141697519Y-92101015D01*
X141578985Y-91982481D01*
X141485853Y-91843100D01*
X141421703Y-91688228D01*
X141389000Y-91523816D01*
X141389000Y-91356184D01*
X141421703Y-91191772D01*
X141485853Y-91036900D01*
X141578985Y-90897519D01*
X141697519Y-90778985D01*
X141836900Y-90685853D01*
X141991772Y-90621703D01*
X142156184Y-90589000D01*
X142323816Y-90589000D01*
X142488228Y-90621703D01*
G37*
G36*
X134868228Y-90621703D02*
G01*
X135023100Y-90685853D01*
X135162481Y-90778985D01*
X135281015Y-90897519D01*
X135374147Y-91036900D01*
X135438297Y-91191772D01*
X135471000Y-91356184D01*
X135471000Y-91523816D01*
X135438297Y-91688228D01*
X135374147Y-91843100D01*
X135281015Y-91982481D01*
X135162481Y-92101015D01*
X135023100Y-92194147D01*
X134868228Y-92258297D01*
X134703816Y-92291000D01*
X134536184Y-92291000D01*
X134371772Y-92258297D01*
X134216900Y-92194147D01*
X134077519Y-92101015D01*
X133958985Y-91982481D01*
X133865853Y-91843100D01*
X133801703Y-91688228D01*
X133769000Y-91523816D01*
X133769000Y-91356184D01*
X133801703Y-91191772D01*
X133865853Y-91036900D01*
X133958985Y-90897519D01*
X134077519Y-90778985D01*
X134216900Y-90685853D01*
X134371772Y-90621703D01*
X134536184Y-90589000D01*
X134703816Y-90589000D01*
X134868228Y-90621703D01*
G37*
G36*
X197287238Y-87461771D02*
G01*
X197472410Y-87498604D01*
X197754674Y-87615521D01*
X198008705Y-87785259D01*
X198224741Y-88001295D01*
X198394479Y-88255326D01*
X198511396Y-88537590D01*
X198534108Y-88651771D01*
X198571000Y-88837239D01*
X198571000Y-89142761D01*
X198569912Y-89148229D01*
X198511396Y-89442410D01*
X198394479Y-89724674D01*
X198224741Y-89978705D01*
X198008705Y-90194741D01*
X197754674Y-90364479D01*
X197472410Y-90481396D01*
X197322585Y-90511198D01*
X197172761Y-90541000D01*
X196867239Y-90541000D01*
X196717415Y-90511198D01*
X196567590Y-90481396D01*
X196285326Y-90364479D01*
X196031295Y-90194741D01*
X195815259Y-89978705D01*
X195645521Y-89724674D01*
X195528604Y-89442410D01*
X195470088Y-89148229D01*
X195469000Y-89142761D01*
X195469000Y-88837239D01*
X195505892Y-88651771D01*
X195528604Y-88537590D01*
X195645521Y-88255326D01*
X195815259Y-88001295D01*
X196031295Y-87785259D01*
X196285326Y-87615521D01*
X196567590Y-87498604D01*
X196752762Y-87461771D01*
X196867239Y-87439000D01*
X197172761Y-87439000D01*
X197287238Y-87461771D01*
G37*
G36*
X161538228Y-88081703D02*
G01*
X161693100Y-88145853D01*
X161832481Y-88238985D01*
X161951015Y-88357519D01*
X162044147Y-88496900D01*
X162108297Y-88651772D01*
X162141000Y-88816184D01*
X162141000Y-88983816D01*
X162108297Y-89148228D01*
X162044147Y-89303100D01*
X161951015Y-89442481D01*
X161832481Y-89561015D01*
X161693100Y-89654147D01*
X161538228Y-89718297D01*
X161373816Y-89751000D01*
X161206184Y-89751000D01*
X161041772Y-89718297D01*
X160886900Y-89654147D01*
X160747519Y-89561015D01*
X160628985Y-89442481D01*
X160535853Y-89303100D01*
X160471703Y-89148228D01*
X160439000Y-88983816D01*
X160439000Y-88816184D01*
X160471703Y-88651772D01*
X160535853Y-88496900D01*
X160628985Y-88357519D01*
X160747519Y-88238985D01*
X160886900Y-88145853D01*
X161041772Y-88081703D01*
X161206184Y-88049000D01*
X161373816Y-88049000D01*
X161538228Y-88081703D01*
G37*
G36*
X179318228Y-88081703D02*
G01*
X179473100Y-88145853D01*
X179612481Y-88238985D01*
X179731015Y-88357519D01*
X179824147Y-88496900D01*
X179888297Y-88651772D01*
X179921000Y-88816184D01*
X179921000Y-88983816D01*
X179888297Y-89148228D01*
X179824147Y-89303100D01*
X179731015Y-89442481D01*
X179612481Y-89561015D01*
X179473100Y-89654147D01*
X179318228Y-89718297D01*
X179153816Y-89751000D01*
X178986184Y-89751000D01*
X178821772Y-89718297D01*
X178666900Y-89654147D01*
X178527519Y-89561015D01*
X178408985Y-89442481D01*
X178315853Y-89303100D01*
X178251703Y-89148228D01*
X178219000Y-88983816D01*
X178219000Y-88816184D01*
X178251703Y-88651772D01*
X178315853Y-88496900D01*
X178408985Y-88357519D01*
X178527519Y-88238985D01*
X178666900Y-88145853D01*
X178821772Y-88081703D01*
X178986184Y-88049000D01*
X179153816Y-88049000D01*
X179318228Y-88081703D01*
G37*
G36*
X176778228Y-88081703D02*
G01*
X176933100Y-88145853D01*
X177072481Y-88238985D01*
X177191015Y-88357519D01*
X177284147Y-88496900D01*
X177348297Y-88651772D01*
X177381000Y-88816184D01*
X177381000Y-88983816D01*
X177348297Y-89148228D01*
X177284147Y-89303100D01*
X177191015Y-89442481D01*
X177072481Y-89561015D01*
X176933100Y-89654147D01*
X176778228Y-89718297D01*
X176613816Y-89751000D01*
X176446184Y-89751000D01*
X176281772Y-89718297D01*
X176126900Y-89654147D01*
X175987519Y-89561015D01*
X175868985Y-89442481D01*
X175775853Y-89303100D01*
X175711703Y-89148228D01*
X175679000Y-88983816D01*
X175679000Y-88816184D01*
X175711703Y-88651772D01*
X175775853Y-88496900D01*
X175868985Y-88357519D01*
X175987519Y-88238985D01*
X176126900Y-88145853D01*
X176281772Y-88081703D01*
X176446184Y-88049000D01*
X176613816Y-88049000D01*
X176778228Y-88081703D01*
G37*
G36*
X174238228Y-88081703D02*
G01*
X174393100Y-88145853D01*
X174532481Y-88238985D01*
X174651015Y-88357519D01*
X174744147Y-88496900D01*
X174808297Y-88651772D01*
X174841000Y-88816184D01*
X174841000Y-88983816D01*
X174808297Y-89148228D01*
X174744147Y-89303100D01*
X174651015Y-89442481D01*
X174532481Y-89561015D01*
X174393100Y-89654147D01*
X174238228Y-89718297D01*
X174073816Y-89751000D01*
X173906184Y-89751000D01*
X173741772Y-89718297D01*
X173586900Y-89654147D01*
X173447519Y-89561015D01*
X173328985Y-89442481D01*
X173235853Y-89303100D01*
X173171703Y-89148228D01*
X173139000Y-88983816D01*
X173139000Y-88816184D01*
X173171703Y-88651772D01*
X173235853Y-88496900D01*
X173328985Y-88357519D01*
X173447519Y-88238985D01*
X173586900Y-88145853D01*
X173741772Y-88081703D01*
X173906184Y-88049000D01*
X174073816Y-88049000D01*
X174238228Y-88081703D01*
G37*
G36*
X171698228Y-88081703D02*
G01*
X171853100Y-88145853D01*
X171992481Y-88238985D01*
X172111015Y-88357519D01*
X172204147Y-88496900D01*
X172268297Y-88651772D01*
X172301000Y-88816184D01*
X172301000Y-88983816D01*
X172268297Y-89148228D01*
X172204147Y-89303100D01*
X172111015Y-89442481D01*
X171992481Y-89561015D01*
X171853100Y-89654147D01*
X171698228Y-89718297D01*
X171533816Y-89751000D01*
X171366184Y-89751000D01*
X171201772Y-89718297D01*
X171046900Y-89654147D01*
X170907519Y-89561015D01*
X170788985Y-89442481D01*
X170695853Y-89303100D01*
X170631703Y-89148228D01*
X170599000Y-88983816D01*
X170599000Y-88816184D01*
X170631703Y-88651772D01*
X170695853Y-88496900D01*
X170788985Y-88357519D01*
X170907519Y-88238985D01*
X171046900Y-88145853D01*
X171201772Y-88081703D01*
X171366184Y-88049000D01*
X171533816Y-88049000D01*
X171698228Y-88081703D01*
G37*
G36*
X169158228Y-88081703D02*
G01*
X169313100Y-88145853D01*
X169452481Y-88238985D01*
X169571015Y-88357519D01*
X169664147Y-88496900D01*
X169728297Y-88651772D01*
X169761000Y-88816184D01*
X169761000Y-88983816D01*
X169728297Y-89148228D01*
X169664147Y-89303100D01*
X169571015Y-89442481D01*
X169452481Y-89561015D01*
X169313100Y-89654147D01*
X169158228Y-89718297D01*
X168993816Y-89751000D01*
X168826184Y-89751000D01*
X168661772Y-89718297D01*
X168506900Y-89654147D01*
X168367519Y-89561015D01*
X168248985Y-89442481D01*
X168155853Y-89303100D01*
X168091703Y-89148228D01*
X168059000Y-88983816D01*
X168059000Y-88816184D01*
X168091703Y-88651772D01*
X168155853Y-88496900D01*
X168248985Y-88357519D01*
X168367519Y-88238985D01*
X168506900Y-88145853D01*
X168661772Y-88081703D01*
X168826184Y-88049000D01*
X168993816Y-88049000D01*
X169158228Y-88081703D01*
G37*
G36*
X146298228Y-88081703D02*
G01*
X146453100Y-88145853D01*
X146592481Y-88238985D01*
X146711015Y-88357519D01*
X146804147Y-88496900D01*
X146868297Y-88651772D01*
X146901000Y-88816184D01*
X146901000Y-88983816D01*
X146868297Y-89148228D01*
X146804147Y-89303100D01*
X146711015Y-89442481D01*
X146592481Y-89561015D01*
X146453100Y-89654147D01*
X146298228Y-89718297D01*
X146133816Y-89751000D01*
X145966184Y-89751000D01*
X145801772Y-89718297D01*
X145646900Y-89654147D01*
X145507519Y-89561015D01*
X145388985Y-89442481D01*
X145295853Y-89303100D01*
X145231703Y-89148228D01*
X145199000Y-88983816D01*
X145199000Y-88816184D01*
X145231703Y-88651772D01*
X145295853Y-88496900D01*
X145388985Y-88357519D01*
X145507519Y-88238985D01*
X145646900Y-88145853D01*
X145801772Y-88081703D01*
X145966184Y-88049000D01*
X146133816Y-88049000D01*
X146298228Y-88081703D01*
G37*
G36*
X166618228Y-88081703D02*
G01*
X166773100Y-88145853D01*
X166912481Y-88238985D01*
X167031015Y-88357519D01*
X167124147Y-88496900D01*
X167188297Y-88651772D01*
X167221000Y-88816184D01*
X167221000Y-88983816D01*
X167188297Y-89148228D01*
X167124147Y-89303100D01*
X167031015Y-89442481D01*
X166912481Y-89561015D01*
X166773100Y-89654147D01*
X166618228Y-89718297D01*
X166453816Y-89751000D01*
X166286184Y-89751000D01*
X166121772Y-89718297D01*
X165966900Y-89654147D01*
X165827519Y-89561015D01*
X165708985Y-89442481D01*
X165615853Y-89303100D01*
X165551703Y-89148228D01*
X165519000Y-88983816D01*
X165519000Y-88816184D01*
X165551703Y-88651772D01*
X165615853Y-88496900D01*
X165708985Y-88357519D01*
X165827519Y-88238985D01*
X165966900Y-88145853D01*
X166121772Y-88081703D01*
X166286184Y-88049000D01*
X166453816Y-88049000D01*
X166618228Y-88081703D01*
G37*
G36*
X148838228Y-88081703D02*
G01*
X148993100Y-88145853D01*
X149132481Y-88238985D01*
X149251015Y-88357519D01*
X149344147Y-88496900D01*
X149408297Y-88651772D01*
X149441000Y-88816184D01*
X149441000Y-88983816D01*
X149408297Y-89148228D01*
X149344147Y-89303100D01*
X149251015Y-89442481D01*
X149132481Y-89561015D01*
X148993100Y-89654147D01*
X148838228Y-89718297D01*
X148673816Y-89751000D01*
X148506184Y-89751000D01*
X148341772Y-89718297D01*
X148186900Y-89654147D01*
X148047519Y-89561015D01*
X147928985Y-89442481D01*
X147835853Y-89303100D01*
X147771703Y-89148228D01*
X147739000Y-88983816D01*
X147739000Y-88816184D01*
X147771703Y-88651772D01*
X147835853Y-88496900D01*
X147928985Y-88357519D01*
X148047519Y-88238985D01*
X148186900Y-88145853D01*
X148341772Y-88081703D01*
X148506184Y-88049000D01*
X148673816Y-88049000D01*
X148838228Y-88081703D01*
G37*
G36*
X164078228Y-88081703D02*
G01*
X164233100Y-88145853D01*
X164372481Y-88238985D01*
X164491015Y-88357519D01*
X164584147Y-88496900D01*
X164648297Y-88651772D01*
X164681000Y-88816184D01*
X164681000Y-88983816D01*
X164648297Y-89148228D01*
X164584147Y-89303100D01*
X164491015Y-89442481D01*
X164372481Y-89561015D01*
X164233100Y-89654147D01*
X164078228Y-89718297D01*
X163913816Y-89751000D01*
X163746184Y-89751000D01*
X163581772Y-89718297D01*
X163426900Y-89654147D01*
X163287519Y-89561015D01*
X163168985Y-89442481D01*
X163075853Y-89303100D01*
X163011703Y-89148228D01*
X162979000Y-88983816D01*
X162979000Y-88816184D01*
X163011703Y-88651772D01*
X163075853Y-88496900D01*
X163168985Y-88357519D01*
X163287519Y-88238985D01*
X163426900Y-88145853D01*
X163581772Y-88081703D01*
X163746184Y-88049000D01*
X163913816Y-88049000D01*
X164078228Y-88081703D01*
G37*
G36*
X151378228Y-88081703D02*
G01*
X151533100Y-88145853D01*
X151672481Y-88238985D01*
X151791015Y-88357519D01*
X151884147Y-88496900D01*
X151948297Y-88651772D01*
X151981000Y-88816184D01*
X151981000Y-88983816D01*
X151948297Y-89148228D01*
X151884147Y-89303100D01*
X151791015Y-89442481D01*
X151672481Y-89561015D01*
X151533100Y-89654147D01*
X151378228Y-89718297D01*
X151213816Y-89751000D01*
X151046184Y-89751000D01*
X150881772Y-89718297D01*
X150726900Y-89654147D01*
X150587519Y-89561015D01*
X150468985Y-89442481D01*
X150375853Y-89303100D01*
X150311703Y-89148228D01*
X150279000Y-88983816D01*
X150279000Y-88816184D01*
X150311703Y-88651772D01*
X150375853Y-88496900D01*
X150468985Y-88357519D01*
X150587519Y-88238985D01*
X150726900Y-88145853D01*
X150881772Y-88081703D01*
X151046184Y-88049000D01*
X151213816Y-88049000D01*
X151378228Y-88081703D01*
G37*
G36*
X153918228Y-88081703D02*
G01*
X154073100Y-88145853D01*
X154212481Y-88238985D01*
X154331015Y-88357519D01*
X154424147Y-88496900D01*
X154488297Y-88651772D01*
X154521000Y-88816184D01*
X154521000Y-88983816D01*
X154488297Y-89148228D01*
X154424147Y-89303100D01*
X154331015Y-89442481D01*
X154212481Y-89561015D01*
X154073100Y-89654147D01*
X153918228Y-89718297D01*
X153753816Y-89751000D01*
X153586184Y-89751000D01*
X153421772Y-89718297D01*
X153266900Y-89654147D01*
X153127519Y-89561015D01*
X153008985Y-89442481D01*
X152915853Y-89303100D01*
X152851703Y-89148228D01*
X152819000Y-88983816D01*
X152819000Y-88816184D01*
X152851703Y-88651772D01*
X152915853Y-88496900D01*
X153008985Y-88357519D01*
X153127519Y-88238985D01*
X153266900Y-88145853D01*
X153421772Y-88081703D01*
X153586184Y-88049000D01*
X153753816Y-88049000D01*
X153918228Y-88081703D01*
G37*
G36*
X158998228Y-88081703D02*
G01*
X159153100Y-88145853D01*
X159292481Y-88238985D01*
X159411015Y-88357519D01*
X159504147Y-88496900D01*
X159568297Y-88651772D01*
X159601000Y-88816184D01*
X159601000Y-88983816D01*
X159568297Y-89148228D01*
X159504147Y-89303100D01*
X159411015Y-89442481D01*
X159292481Y-89561015D01*
X159153100Y-89654147D01*
X158998228Y-89718297D01*
X158833816Y-89751000D01*
X158666184Y-89751000D01*
X158501772Y-89718297D01*
X158346900Y-89654147D01*
X158207519Y-89561015D01*
X158088985Y-89442481D01*
X157995853Y-89303100D01*
X157931703Y-89148228D01*
X157899000Y-88983816D01*
X157899000Y-88816184D01*
X157931703Y-88651772D01*
X157995853Y-88496900D01*
X158088985Y-88357519D01*
X158207519Y-88238985D01*
X158346900Y-88145853D01*
X158501772Y-88081703D01*
X158666184Y-88049000D01*
X158833816Y-88049000D01*
X158998228Y-88081703D01*
G37*
G36*
X156458228Y-88081703D02*
G01*
X156613100Y-88145853D01*
X156752481Y-88238985D01*
X156871015Y-88357519D01*
X156964147Y-88496900D01*
X157028297Y-88651772D01*
X157061000Y-88816184D01*
X157061000Y-88983816D01*
X157028297Y-89148228D01*
X156964147Y-89303100D01*
X156871015Y-89442481D01*
X156752481Y-89561015D01*
X156613100Y-89654147D01*
X156458228Y-89718297D01*
X156293816Y-89751000D01*
X156126184Y-89751000D01*
X155961772Y-89718297D01*
X155806900Y-89654147D01*
X155667519Y-89561015D01*
X155548985Y-89442481D01*
X155455853Y-89303100D01*
X155391703Y-89148228D01*
X155359000Y-88983816D01*
X155359000Y-88816184D01*
X155391703Y-88651772D01*
X155455853Y-88496900D01*
X155548985Y-88357519D01*
X155667519Y-88238985D01*
X155806900Y-88145853D01*
X155961772Y-88081703D01*
X156126184Y-88049000D01*
X156293816Y-88049000D01*
X156458228Y-88081703D01*
G37*
G36*
X189478228Y-86891703D02*
G01*
X189633100Y-86955853D01*
X189772481Y-87048985D01*
X189891015Y-87167519D01*
X189984147Y-87306900D01*
X190048297Y-87461772D01*
X190081000Y-87626184D01*
X190081000Y-87793816D01*
X190048297Y-87958228D01*
X189984147Y-88113100D01*
X189891015Y-88252481D01*
X189772481Y-88371015D01*
X189633100Y-88464147D01*
X189478228Y-88528297D01*
X189313816Y-88561000D01*
X189146184Y-88561000D01*
X188981772Y-88528297D01*
X188826900Y-88464147D01*
X188687519Y-88371015D01*
X188568985Y-88252481D01*
X188475853Y-88113100D01*
X188411703Y-87958228D01*
X188379000Y-87793816D01*
X188379000Y-87626184D01*
X188411703Y-87461772D01*
X188475853Y-87306900D01*
X188568985Y-87167519D01*
X188687519Y-87048985D01*
X188826900Y-86955853D01*
X188981772Y-86891703D01*
X189146184Y-86859000D01*
X189313816Y-86859000D01*
X189478228Y-86891703D01*
G37*
G36*
X184398228Y-86811703D02*
G01*
X184553100Y-86875853D01*
X184692481Y-86968985D01*
X184811015Y-87087519D01*
X184904147Y-87226900D01*
X184968297Y-87381772D01*
X185001000Y-87546184D01*
X185001000Y-87713816D01*
X184968297Y-87878228D01*
X184904147Y-88033100D01*
X184811015Y-88172481D01*
X184692481Y-88291015D01*
X184553100Y-88384147D01*
X184398228Y-88448297D01*
X184233816Y-88481000D01*
X184066184Y-88481000D01*
X183901772Y-88448297D01*
X183746900Y-88384147D01*
X183607519Y-88291015D01*
X183488985Y-88172481D01*
X183395853Y-88033100D01*
X183331703Y-87878228D01*
X183299000Y-87713816D01*
X183299000Y-87546184D01*
X183331703Y-87381772D01*
X183395853Y-87226900D01*
X183488985Y-87087519D01*
X183607519Y-86968985D01*
X183746900Y-86875853D01*
X183901772Y-86811703D01*
X184066184Y-86779000D01*
X184233816Y-86779000D01*
X184398228Y-86811703D01*
G37*
M02*
