G04 #@! TF.GenerationSoftware,KiCad,Pcbnew,5.1.5*
G04 #@! TF.CreationDate,2020-02-20T08:26:26-05:00*
G04 #@! TF.ProjectId,bluefish-hardware,626c7565-6669-4736-982d-686172647761,rev?*
G04 #@! TF.SameCoordinates,Original*
G04 #@! TF.FileFunction,Copper,L2,Bot*
G04 #@! TF.FilePolarity,Positive*
%FSLAX46Y46*%
G04 Gerber Fmt 4.6, Leading zero omitted, Abs format (unit mm)*
G04 Created by KiCad (PCBNEW 5.1.5) date 2020-02-20 08:26:26*
%MOMM*%
%LPD*%
G04 APERTURE LIST*
%ADD10C,1.600000*%
%ADD11C,3.000000*%
%ADD12R,1.600000X1.600000*%
%ADD13O,1.600000X1.600000*%
%ADD14C,1.500000*%
%ADD15C,0.800000*%
%ADD16C,0.250000*%
G04 APERTURE END LIST*
D10*
X184150000Y-87630000D03*
X184150000Y-92630000D03*
X157560000Y-101600000D03*
X162560000Y-101600000D03*
X177800000Y-101600000D03*
X182800000Y-101600000D03*
X189230000Y-87710000D03*
X189230000Y-92710000D03*
D11*
X197020000Y-88990000D03*
X197020000Y-102130000D03*
D12*
X194310000Y-99060000D03*
D10*
X194310000Y-96560000D03*
X194310000Y-94560000D03*
X194310000Y-92060000D03*
X154940000Y-101600000D03*
D13*
X147320000Y-101600000D03*
D12*
X146050000Y-96520000D03*
D13*
X179070000Y-88900000D03*
X148590000Y-96520000D03*
X176530000Y-88900000D03*
X151130000Y-96520000D03*
X173990000Y-88900000D03*
X153670000Y-96520000D03*
X171450000Y-88900000D03*
X156210000Y-96520000D03*
X168910000Y-88900000D03*
X158750000Y-96520000D03*
X166370000Y-88900000D03*
X161290000Y-96520000D03*
X163830000Y-88900000D03*
X163830000Y-96520000D03*
X161290000Y-88900000D03*
X166370000Y-96520000D03*
X158750000Y-88900000D03*
X168910000Y-96520000D03*
X156210000Y-88900000D03*
X171450000Y-96520000D03*
X153670000Y-88900000D03*
X173990000Y-96520000D03*
X151130000Y-88900000D03*
X176530000Y-96520000D03*
X148590000Y-88900000D03*
X179070000Y-96520000D03*
X146050000Y-88900000D03*
D12*
X142240000Y-99060000D03*
D13*
X134620000Y-91440000D03*
X142240000Y-96520000D03*
X134620000Y-93980000D03*
X142240000Y-93980000D03*
X134620000Y-96520000D03*
X142240000Y-91440000D03*
X134620000Y-99060000D03*
D14*
X172720000Y-101600000D03*
X167840000Y-101600000D03*
D15*
X190500000Y-104140000D03*
X191445000Y-94925000D03*
D16*
X197020000Y-88990000D02*
X197020000Y-102130000D01*
X197020000Y-100720000D02*
X197020000Y-102130000D01*
X195360000Y-99060000D02*
X197020000Y-100720000D01*
X194310000Y-99060000D02*
X195360000Y-99060000D01*
X194310000Y-99060000D02*
X194310000Y-101600000D01*
X182800000Y-98584998D02*
X179465002Y-95250000D01*
X182800000Y-101600000D02*
X182800000Y-98584998D01*
X165100000Y-95250000D02*
X163830000Y-96520000D01*
X179465002Y-95250000D02*
X165100000Y-95250000D01*
X163030001Y-97319999D02*
X163830000Y-96520000D01*
X158750000Y-101600000D02*
X163030001Y-97319999D01*
X157560000Y-101600000D02*
X158750000Y-101600000D01*
X195740000Y-87710000D02*
X197020000Y-88990000D01*
X189230000Y-87710000D02*
X195740000Y-87710000D01*
X179610001Y-87774999D02*
X180735002Y-88900000D01*
X188040000Y-88900000D02*
X188430001Y-88509999D01*
X162415001Y-87774999D02*
X179610001Y-87774999D01*
X188430001Y-88509999D02*
X189230000Y-87710000D01*
X180735002Y-88900000D02*
X188040000Y-88900000D01*
X161290000Y-88900000D02*
X162415001Y-87774999D01*
X193040000Y-101600000D02*
X190500000Y-104140000D01*
X193040000Y-101600000D02*
X182800000Y-101600000D01*
X194310000Y-101600000D02*
X193040000Y-101600000D01*
X190500000Y-104140000D02*
X190500000Y-104140000D01*
X156434999Y-102725001D02*
X156760001Y-102399999D01*
X156760001Y-102399999D02*
X157560000Y-101600000D01*
X144855001Y-102725001D02*
X156434999Y-102725001D01*
X142240000Y-100110000D02*
X144855001Y-102725001D01*
X142240000Y-99060000D02*
X142240000Y-100110000D01*
X142240000Y-91440000D02*
X142240000Y-93980000D01*
X142240000Y-93980000D02*
X142240000Y-96520000D01*
X142240000Y-96520000D02*
X134620000Y-96520000D01*
X142240000Y-91440000D02*
X160020000Y-91440000D01*
X161290000Y-90170000D02*
X161290000Y-88900000D01*
X160020000Y-91440000D02*
X161290000Y-90170000D01*
X156065001Y-100474999D02*
X157335001Y-100474999D01*
X160490001Y-97319999D02*
X161290000Y-96520000D01*
X157335001Y-100474999D02*
X160490001Y-97319999D01*
X154940000Y-101600000D02*
X156065001Y-100474999D01*
X161290000Y-93980000D02*
X166370000Y-88900000D01*
X161290000Y-96520000D02*
X161290000Y-93980000D01*
X154140001Y-100800001D02*
X154940000Y-101600000D01*
X151274999Y-97934999D02*
X154140001Y-100800001D01*
X135745001Y-97934999D02*
X151274999Y-97934999D01*
X134620000Y-99060000D02*
X135745001Y-97934999D01*
X194310000Y-92060000D02*
X191445000Y-94925000D01*
X167169999Y-89699999D02*
X166370000Y-88900000D01*
X191045001Y-94525001D02*
X171995001Y-94525001D01*
X171995001Y-94525001D02*
X167169999Y-89699999D01*
X191445000Y-94925000D02*
X191045001Y-94525001D01*
M02*
